<svg width="59" height="58" viewBox="0 0 59 58" fill="none" xmlns="http://www.w3.org/2000/svg">
<rect x="0.5" width="56" height="56" rx="28" fill="#153AC7"/>
<rect x="0.5" width="56" height="56" rx="28" stroke="#153AC7"/>
<path d="M43.168 21.9998H13.8346C13.5999 21.9974 13.3699 21.933 13.168 21.8132V42.6665C13.168 42.8433 13.2382 43.0129 13.3632 43.1379C13.4883 43.2629 13.6578 43.3332 13.8346 43.3332H43.168C43.3448 43.3332 43.5143 43.2629 43.6394 43.1379C43.7644 43.0129 43.8346 42.8433 43.8346 42.6665V21.8132C43.6327 21.933 43.4027 21.9974 43.168 21.9998ZM23.168 39.3332C23.168 39.51 23.0977 39.6796 22.9727 39.8046C22.8477 39.9296 22.6781 39.9998 22.5013 39.9998H17.168C16.9912 39.9998 16.8216 39.9296 16.6966 39.8046C16.5715 39.6796 16.5013 39.51 16.5013 39.3332V33.9998C16.5013 33.823 16.5715 33.6535 16.6966 33.5284C16.8216 33.4034 16.9912 33.3332 17.168 33.3332H22.5013C22.6781 33.3332 22.8477 33.4034 22.9727 33.5284C23.0977 33.6535 23.168 33.823 23.168 33.9998V39.3332ZM31.8346 39.3332C31.8346 39.51 31.7644 39.6796 31.6394 39.8046C31.5143 39.9296 31.3448 39.9998 31.168 39.9998H25.8346C25.6578 39.9998 25.4883 39.9296 25.3632 39.8046C25.2382 39.6796 25.168 39.51 25.168 39.3332V33.9998C25.168 33.823 25.2382 33.6535 25.3632 33.5284C25.4883 33.4034 25.6578 33.3332 25.8346 33.3332H31.168C31.3448 33.3332 31.5143 33.4034 31.6394 33.5284C31.7644 33.6535 31.8346 33.823 31.8346 33.9998V39.3332ZM31.8346 29.9998C31.8346 30.1766 31.7644 30.3462 31.6394 30.4712C31.5143 30.5963 31.3448 30.6665 31.168 30.6665H25.8346C25.6578 30.6665 25.4883 30.5963 25.3632 30.4712C25.2382 30.3462 25.168 30.1766 25.168 29.9998V24.6665C25.168 24.4897 25.2382 24.3201 25.3632 24.1951C25.4883 24.0701 25.6578 23.9998 25.8346 23.9998H31.168C31.3448 23.9998 31.5143 24.0701 31.6394 24.1951C31.7644 24.3201 31.8346 24.4897 31.8346 24.6665V29.9998ZM40.5013 39.3332C40.5013 39.51 40.4311 39.6796 40.306 39.8046C40.181 39.9296 40.0114 39.9998 39.8346 39.9998H34.5013C34.3245 39.9998 34.1549 39.9296 34.0299 39.8046C33.9049 39.6796 33.8346 39.51 33.8346 39.3332V33.9998C33.8346 33.823 33.9049 33.6535 34.0299 33.5284C34.1549 33.4034 34.3245 33.3332 34.5013 33.3332H39.8346C40.0114 33.3332 40.181 33.4034 40.306 33.5284C40.4311 33.6535 40.5013 33.823 40.5013 33.9998V39.3332ZM40.5013 29.9998C40.5013 30.1766 40.4311 30.3462 40.306 30.4712C40.181 30.5963 40.0114 30.6665 39.8346 30.6665H34.5013C34.3245 30.6665 34.1549 30.5963 34.0299 30.4712C33.9049 30.3462 33.8346 30.1766 33.8346 29.9998V24.6665C33.8346 24.4897 33.9049 24.3201 34.0299 24.1951C34.1549 24.0701 34.3245 23.9998 34.5013 23.9998H39.8346C40.0114 23.9998 40.181 24.0701 40.306 24.1951C40.4311 24.3201 40.5013 24.4897 40.5013 24.6665V29.9998ZM18.5013 18.6665C18.3245 18.6665 18.1549 18.5963 18.0299 18.4712C17.9049 18.3462 17.8346 18.1766 17.8346 17.9998V13.3332C17.8346 13.1564 17.9049 12.9868 18.0299 12.8618C18.1549 12.7367 18.3245 12.6665 18.5013 12.6665C18.6781 12.6665 18.8477 12.7367 18.9727 12.8618C19.0977 12.9868 19.168 13.1564 19.168 13.3332V17.9998C19.168 18.1766 19.0977 18.3462 18.9727 18.4712C18.8477 18.5963 18.6781 18.6665 18.5013 18.6665ZM43.8346 15.9998V20.6665C43.8346 20.8433 43.7644 21.0129 43.6394 21.1379C43.5143 21.2629 43.3448 21.3332 43.168 21.3332H13.8346C13.6578 21.3332 13.4883 21.2629 13.3632 21.1379C13.2382 21.0129 13.168 20.8433 13.168 20.6665V15.9998C13.168 15.823 13.2382 15.6535 13.3632 15.5284C13.4883 15.4034 13.6578 15.3332 13.8346 15.3332H17.168V17.9998C17.168 18.3535 17.3084 18.6926 17.5585 18.9426C17.8085 19.1927 18.1477 19.3332 18.5013 19.3332C18.8549 19.3332 19.1941 19.1927 19.4441 18.9426C19.6942 18.6926 19.8346 18.3535 19.8346 17.9998V15.3332H37.168V17.9998C37.168 18.3535 37.3084 18.6926 37.5585 18.9426C37.8085 19.1927 38.1477 19.3332 38.5013 19.3332C38.8549 19.3332 39.1941 19.1927 39.4441 18.9426C39.6942 18.6926 39.8346 18.3535 39.8346 17.9998V15.3332H43.168C43.3448 15.3332 43.5143 15.4034 43.6394 15.5284C43.7644 15.6535 43.8346 15.823 43.8346 15.9998ZM38.5013 18.6665C38.3245 18.6665 38.1549 18.5963 38.0299 18.4712C37.9049 18.3462 37.8346 18.1766 37.8346 17.9998V13.3332C37.8346 13.1564 37.9049 12.9868 38.0299 12.8618C38.1549 12.7367 38.3245 12.6665 38.5013 12.6665C38.6781 12.6665 38.8477 12.7367 38.9727 12.8618C39.0977 12.9868 39.168 13.1564 39.168 13.3332V17.9998C39.168 18.1766 39.0977 18.3462 38.9727 18.4712C38.8477 18.5963 38.6781 18.6665 38.5013 18.6665Z" fill="#F3F4FB"/>
</svg>
