<svg width="564" height="350" viewBox="0 0 564 350" fill="none" xmlns="http://www.w3.org/2000/svg">
<path d="M51.5004 0H541.015C547.111 0.000160874 552.957 2.42183 557.267 6.73229C561.578 11.0427 563.999 16.8889 563.999 22.9847V290.317C563.999 296.413 561.578 302.259 557.267 306.569C552.957 310.88 547.111 313.301 541.015 313.302H51.5004C48.482 313.302 45.4931 312.707 42.7045 311.552C39.9159 310.397 37.382 308.704 35.2477 306.569C33.1134 304.435 31.4203 301.901 30.2652 299.113C29.1101 296.324 28.5156 293.335 28.5156 290.317V22.9847C28.5156 16.8888 30.9372 11.0426 35.2477 6.73208C39.5582 2.4216 45.4044 0 51.5004 0Z" fill="#F2F8FF"/>
<mask id="mask0_94_57801" style="mask-type:luminance" maskUnits="userSpaceOnUse" x="28" y="0" width="536" height="314">
<path d="M51.5004 0H541.015C547.111 0.000160874 552.957 2.42183 557.267 6.73229C561.578 11.0427 563.999 16.8889 563.999 22.9847V290.317C563.999 296.413 561.578 302.259 557.267 306.569C552.957 310.88 547.111 313.301 541.015 313.302H51.5004C48.482 313.302 45.4931 312.707 42.7045 311.552C39.9159 310.397 37.382 308.704 35.2477 306.569C33.1134 304.435 31.4203 301.901 30.2652 299.113C29.1101 296.324 28.5156 293.335 28.5156 290.317V22.9847C28.5156 16.8888 30.9372 11.0426 35.2477 6.73208C39.5582 2.4216 45.4044 0 51.5004 0Z" fill="white"/>
</mask>
<g mask="url(#mask0_94_57801)">
<path d="M11.3867 -13.2109H583.62V32.5268H11.3867V-13.2109Z" fill="#2C4ECD"/>
<path d="M521.522 54.6357H413.182C406.733 54.6357 401.504 59.8644 401.504 66.3143V79.8012C401.504 86.2511 406.733 91.4798 413.182 91.4798H521.522C527.972 91.4798 533.2 86.2511 533.2 79.8012V66.3143C533.2 59.8644 527.972 54.6357 521.522 54.6357Z" fill="#B3DAFF"/>
<path d="M521.518 101.2H413.182C406.733 101.2 401.504 106.429 401.504 112.879V155.137C401.504 161.587 406.733 166.815 413.182 166.815H521.518C527.967 166.815 533.196 161.587 533.196 155.137V112.879C533.196 106.429 527.967 101.2 521.518 101.2Z" fill="#B3DAFF"/>
<path d="M447.354 176.454H546.339C547.873 176.454 549.391 176.756 550.808 177.343C552.225 177.93 553.512 178.79 554.597 179.875C555.681 180.959 556.542 182.247 557.128 183.663C557.715 185.08 558.017 186.599 558.017 188.133V193.104C558.017 194.637 557.715 196.156 557.128 197.573C556.542 198.99 555.681 200.277 554.597 201.362C553.512 202.446 552.225 203.306 550.808 203.893C549.391 204.48 547.873 204.782 546.339 204.782H447.355C445.821 204.782 444.303 204.48 442.886 203.893C441.469 203.307 440.181 202.446 439.097 201.362C438.012 200.277 437.152 198.99 436.565 197.573C435.978 196.156 435.676 194.637 435.676 193.104V188.133C435.676 186.599 435.978 185.08 436.565 183.663C437.152 182.246 438.012 180.959 439.097 179.874C440.181 178.79 441.469 177.93 442.886 177.343C444.303 176.756 445.821 176.454 447.354 176.454Z" fill="#2C4ECD"/>
<path d="M546.34 254.527H465.936C459.486 254.527 454.258 259.756 454.258 266.206V271.176C454.258 277.626 459.486 282.855 465.936 282.855H546.34C552.79 282.855 558.019 277.626 558.019 271.176V266.206C558.019 259.756 552.79 254.527 546.34 254.527Z" fill="#2C4ECD"/>
<path d="M514.387 213.791H410.962C405.739 213.791 401.504 218.025 401.504 223.249V232.66C401.504 237.883 405.739 242.118 410.962 242.118H514.387C519.611 242.118 523.846 237.883 523.846 232.66V223.249C523.846 218.025 519.611 213.791 514.387 213.791Z" fill="#B3DAFF"/>
<path d="M541.144 46.5491H446.668C446.185 46.5492 445.707 46.4542 445.261 46.2696C444.815 46.0849 444.41 45.8143 444.069 45.473C443.727 45.1318 443.457 44.7267 443.272 44.2808C443.087 43.8349 442.992 43.357 442.992 42.8744C442.992 42.3918 443.087 41.9139 443.272 41.468C443.457 41.0221 443.727 40.617 444.069 40.2758C444.41 39.9346 444.815 39.6639 445.261 39.4793C445.707 39.2946 446.185 39.1996 446.668 39.1997H541.144C542.118 39.1997 543.053 39.5869 543.742 40.276C544.431 40.9651 544.819 41.8998 544.819 42.8744C544.819 43.849 544.431 44.7837 543.742 45.4728C543.053 46.1619 542.118 46.5491 541.144 46.5491Z" fill="#2C4ECD"/>
<path d="M447.961 6.32471H49.8597C45.5297 6.32471 42.0195 9.83485 42.0195 14.1648V16.3874C42.0195 20.7173 45.5297 24.2275 49.8597 24.2275H447.961C452.291 24.2275 455.801 20.7173 455.801 16.3874V14.1648C455.801 9.83485 452.291 6.32471 447.961 6.32471Z" fill="#F8F9FD"/>
</g>
<path d="M546.758 20.3755C547.774 15.6054 544.73 10.915 539.96 9.89905C535.19 8.88314 530.5 11.9265 529.484 16.6965C528.468 21.4666 531.511 26.1571 536.281 27.173C541.052 28.1889 545.742 25.1455 546.758 20.3755Z" fill="#F8F9FD"/>
<path d="M524.704 19.9569C525.489 15.1434 522.223 10.6051 517.409 9.82034C512.596 9.03555 508.057 12.3015 507.273 17.1149C506.488 21.9284 509.754 26.4668 514.567 27.2516C519.381 28.0363 523.919 24.7704 524.704 19.9569Z" fill="#F8F9FD"/>
<path d="M500.741 24.0605C503.791 20.2555 503.18 14.6978 499.375 11.6469C495.57 8.59604 490.012 9.20738 486.962 13.0124C483.911 16.8173 484.522 22.3751 488.327 25.4259C492.132 28.4768 497.69 27.8655 500.741 24.0605Z" fill="#F8F9FD"/>
<path fill-rule="evenodd" clip-rule="evenodd" d="M133.149 158.015C133.316 158.015 133.452 158.151 133.452 158.318V192.894C133.452 193.061 133.316 193.197 133.149 193.197C132.981 193.197 132.846 193.061 132.846 192.894V158.318C132.846 158.151 132.981 158.015 133.149 158.015ZM66.4244 161.048C66.5919 161.048 66.7277 161.184 66.7277 161.351V192.894C66.7277 193.061 66.5919 193.197 66.4244 193.197C66.2569 193.197 66.1211 193.061 66.1211 192.894V161.351C66.1211 161.184 66.2569 161.048 66.4244 161.048Z" fill="#D94A37"/>
<path d="M215.006 50.8433H360.896C363.217 50.8432 365.515 51.3003 367.66 52.1884C369.804 53.0765 371.752 54.3783 373.393 56.0195C375.035 57.6606 376.337 59.609 377.225 61.7533C378.113 63.8975 378.57 66.1958 378.57 68.5167V175.515C378.57 177.836 378.113 180.135 377.225 182.279C376.337 184.423 375.035 186.372 373.394 188.013C371.753 189.654 369.804 190.956 367.66 191.844C365.515 192.733 363.217 193.19 360.896 193.19H215.006C212.685 193.19 210.387 192.733 208.242 191.844C206.098 190.956 204.15 189.654 202.508 188.013C200.867 186.372 199.565 184.423 198.677 182.279C197.789 180.135 197.332 177.836 197.332 175.515V68.5167C197.332 63.8294 199.194 59.3341 202.508 56.0197C205.823 52.7053 210.318 50.8433 215.006 50.8433Z" fill="#FFE1A5"/>
<path d="M280.409 64.9043C276.882 65.1984 273.487 66.3819 270.541 68.3444C267.596 70.3069 265.196 72.9843 263.566 76.1262C257.803 87.0447 260.23 102.007 253.86 106.961C247.491 111.914 235.36 121.923 238.392 137.391L282.303 132.539L285.639 74.4047L287.92 67.9373C287.92 67.9373 284.195 64.2389 280.409 64.9043Z" fill="#071B40"/>
<mask id="mask1_94_57801" style="mask-type:luminance" maskUnits="userSpaceOnUse" x="237" y="64" width="51" height="74">
<path d="M280.409 64.9043C276.882 65.1984 273.487 66.3819 270.541 68.3444C267.596 70.3069 265.196 72.9843 263.566 76.1262C257.803 87.0447 260.23 102.007 253.86 106.961C247.491 111.914 235.36 121.923 238.392 137.391L282.303 132.539L285.639 74.4047L287.92 67.9373C287.92 67.9373 284.195 64.2389 280.409 64.9043Z" fill="white"/>
</mask>
<g mask="url(#mask1_94_57801)">
<path opacity="0.43" d="M286.923 70.7736C286.923 70.7736 278.409 66.926 273.972 73.1939C271.243 77.0689 268.823 81.1522 266.734 85.4062" stroke="#0E3680" stroke-linecap="round" stroke-linejoin="round"/>
<path opacity="0.43" fill-rule="evenodd" clip-rule="evenodd" d="M280.492 65.1968L280.49 65.1972L280.483 65.1991L280.455 65.2074C280.429 65.215 280.389 65.2267 280.337 65.2427C280.234 65.2748 280.08 65.3242 279.883 65.3929C279.488 65.5304 278.92 65.7448 278.23 66.0514C276.849 66.6649 274.982 67.6459 273.045 69.1148C269.172 72.0504 265.016 76.9318 263.868 84.7353C262.706 92.6304 261.405 100.953 259.255 107.582C258.18 110.897 256.888 113.806 255.282 116.032C253.675 118.259 251.742 119.82 249.385 120.398C244.997 121.475 242.269 125.386 240.631 129.111C239.816 130.965 239.28 132.752 238.948 134.076C238.782 134.738 238.667 135.284 238.594 135.663C238.558 135.852 238.531 136 238.514 136.1C238.506 136.15 238.5 136.188 238.496 136.214L238.491 136.242L238.49 136.249L238.49 136.25C238.465 136.416 238.311 136.531 238.145 136.506C237.98 136.481 237.865 136.327 237.89 136.161L238.19 136.206C237.89 136.161 237.89 136.162 237.89 136.161L237.89 136.161L237.891 136.158L237.892 136.15L237.897 136.119C237.901 136.091 237.908 136.051 237.916 135.999C237.934 135.895 237.961 135.742 237.999 135.548C238.073 135.159 238.191 134.603 238.36 133.929C238.697 132.582 239.243 130.76 240.076 128.866C241.734 125.095 244.568 120.956 249.241 119.809C251.415 119.276 253.238 117.829 254.79 115.677C256.344 113.523 257.613 110.68 258.678 107.395C260.809 100.823 262.105 92.5511 263.268 84.647C264.444 76.6514 268.71 71.6394 272.678 68.6314C274.661 67.1284 276.57 66.1251 277.983 65.4971C278.691 65.183 279.275 64.9625 279.683 64.8201C279.888 64.7489 280.048 64.6973 280.158 64.6632C280.213 64.6462 280.256 64.6336 280.285 64.6251L280.318 64.6154L280.327 64.6129L280.33 64.6122L280.331 64.612C280.331 64.6119 280.331 64.6119 280.411 64.9043L280.331 64.612C280.492 64.5676 280.66 64.6625 280.704 64.824C280.748 64.9855 280.653 65.1524 280.492 65.1968ZM266.726 94.5373C266.894 94.5335 267.032 94.6662 267.036 94.8337L266.733 94.8406L266.43 94.8474C266.426 94.68 266.559 94.5411 266.726 94.5373ZM266.733 94.8406C266.43 94.8474 266.43 94.8473 266.43 94.8474L266.431 94.8896L266.433 95.0139C266.435 95.1231 266.438 95.2835 266.44 95.4883C266.446 95.898 266.451 96.485 266.451 97.1941C266.451 98.6125 266.431 100.518 266.348 102.466C266.265 104.417 266.12 106.402 265.873 107.986C265.749 108.778 265.601 109.459 265.426 109.981C265.245 110.521 265.056 110.826 264.89 110.944C264.334 111.342 263.609 112.279 262.9 113.475C262.182 114.685 261.455 116.203 260.903 117.804C260.353 119.403 259.974 121.1 259.964 122.664C259.954 124.227 260.313 125.688 261.276 126.775C261.387 126.901 261.579 126.912 261.704 126.801C261.829 126.69 261.841 126.498 261.73 126.373C260.902 125.438 260.561 124.145 260.57 122.668C260.58 121.192 260.939 119.564 261.477 118.002C262.014 116.441 262.724 114.961 263.422 113.785C264.128 112.594 264.798 111.756 265.243 111.438C265.579 111.198 265.817 110.724 266.001 110.174C266.192 109.606 266.346 108.887 266.472 108.079C266.725 106.462 266.871 104.45 266.954 102.492C267.038 100.532 267.058 98.6175 267.058 97.1939C267.058 96.482 267.052 95.8923 267.047 95.4805C267.044 95.2745 267.042 95.1131 267.04 95.003L267.037 94.8772L267.036 94.8344C267.036 94.8343 267.036 94.8337 266.733 94.8406Z" fill="#0E3680"/>
</g>
<path d="M263.566 121.62C263.566 121.62 232.326 134.662 230.507 137.088C228.687 139.514 214.129 192.287 214.129 192.287H343.332L336.648 144.551C336.112 140.719 334.459 137.13 331.896 134.233C329.333 131.335 325.973 129.256 322.235 128.255L291.772 120.104L263.566 121.62Z" fill="#FFA60A"/>
<mask id="mask2_94_57801" style="mask-type:luminance" maskUnits="userSpaceOnUse" x="214" y="120" width="130" height="73">
<path d="M263.566 121.62C263.566 121.62 232.326 134.662 230.507 137.088C228.687 139.514 214.129 192.287 214.129 192.287H343.332L336.648 144.551C336.112 140.719 334.459 137.13 331.896 134.233C329.333 131.335 325.973 129.256 322.235 128.255L291.772 120.104L263.566 121.62Z" fill="white"/>
</mask>
<g mask="url(#mask2_94_57801)">
<path opacity="0.74" d="M270.934 122.015C270.934 122.015 291.164 157.086 320.887 164.374L350.609 171.663C350.609 171.663 342.833 123.412 325.971 120.103C309.108 116.795 270.934 122.015 270.934 122.015Z" fill="#CC8508"/>
</g>
<path d="M289.656 106.155C289.656 106.155 289.935 108.452 290.3 111.191C290.787 114.825 291.427 119.239 291.773 120.104C291.773 120.104 278.124 129.809 263.566 121.62C263.566 121.62 269.309 110.742 268.577 93.5176L289.656 106.155Z" fill="#FCC4AC"/>
<path opacity="0.78" d="M290.56 111.191C290.56 111.191 275.655 110.496 267.965 94.2339L290.56 100.996V111.191Z" fill="#FE7D6B"/>
<path d="M268.575 87.1004C270.763 87.3261 267.963 75.292 281.257 74.205C282.426 73.949 295.98 72.472 295.815 82.2932C295.674 90.6532 296.475 102.444 286.064 106.029C284.671 106.494 283.157 106.45 281.793 105.905C278.271 104.536 271.226 101.057 267.963 94.2339C268.105 93.4854 263.926 96.3036 261.5 90.541C261.5 90.541 261.599 79.5824 268.575 87.1004Z" fill="#FCC4AC"/>
<path d="M286.921 83.7085H291.774M276.609 83.7085H281.462" stroke="#071B40" stroke-width="2" stroke-linecap="round" stroke-linejoin="round"/>
<path d="M286.496 87.4668C286.627 86.859 290.583 82.5007 294.72 86.5242C295.099 86.9597 292.577 92.0411 286.496 87.4668Z" fill="#F8F9FD"/>
<mask id="mask3_94_57801" style="mask-type:luminance" maskUnits="userSpaceOnUse" x="286" y="84" width="9" height="6">
<path d="M286.496 87.4668C286.627 86.859 290.583 82.5007 294.72 86.5242C295.099 86.9597 292.577 92.0411 286.496 87.4668Z" fill="white"/>
</mask>
<g mask="url(#mask3_94_57801)">
<path d="M291.711 89.962C293.34 89.962 294.66 88.7749 294.66 87.3106C294.66 85.8462 293.34 84.6592 291.711 84.6592C290.082 84.6592 288.762 85.8462 288.762 87.3106C288.762 88.7749 290.082 89.962 291.711 89.962Z" fill="#071B40"/>
</g>
<path d="M273.969 87.4668C274.1 86.859 278.057 82.5007 282.193 86.5242C282.571 86.9597 280.049 92.0411 273.969 87.4668Z" fill="#F8F9FD"/>
<mask id="mask4_94_57801" style="mask-type:luminance" maskUnits="userSpaceOnUse" x="273" y="84" width="10" height="6">
<path d="M273.969 87.4668C274.1 86.859 278.057 82.5007 282.193 86.5242C282.571 86.9597 280.049 92.0411 273.969 87.4668Z" fill="white"/>
</mask>
<g mask="url(#mask4_94_57801)">
<path d="M279.793 89.962C281.422 89.962 282.742 88.7749 282.742 87.3106C282.742 85.8462 281.422 84.6592 279.793 84.6592C278.164 84.6592 276.844 85.8462 276.844 87.3106C276.844 88.7749 278.164 89.962 279.793 89.962Z" fill="#071B40"/>
</g>
<path fill-rule="evenodd" clip-rule="evenodd" d="M284.323 88.8307C284.463 88.7382 284.651 88.7766 284.744 88.9163L284.491 89.0836C284.744 88.9163 284.744 88.9162 284.744 88.9163L284.745 88.9178L284.747 88.9215L284.756 88.9352C284.764 88.9471 284.775 88.9645 284.79 88.9869C284.818 89.0319 284.86 89.0973 284.911 89.1802C285.013 89.346 285.154 89.582 285.31 89.8645C285.623 90.4272 286.002 91.1838 286.257 91.9407C286.506 92.6803 286.661 93.4917 286.441 94.1243C286.325 94.4555 286.107 94.7341 285.765 94.9157C285.431 95.0931 285.001 95.1659 284.475 95.1381C284.308 95.1293 284.179 94.9865 284.188 94.8193C284.197 94.652 284.34 94.5236 284.507 94.5324C284.966 94.5566 285.276 94.4887 285.481 94.3799C285.678 94.2754 285.799 94.1227 285.868 93.9244C286.017 93.498 285.926 92.8586 285.682 92.1342C285.444 91.4272 285.084 90.7069 284.78 90.1586C284.629 89.8857 284.492 89.6577 284.394 89.4983C284.345 89.4187 284.306 89.3563 284.279 89.314C284.265 89.2929 284.255 89.2768 284.248 89.2662L284.24 89.2544L284.238 89.2516L284.238 89.251" fill="#FE7D6B"/>
<path opacity="0.49" d="M279.6 93.5179C279.639 94.1431 279.489 94.7657 279.171 95.305C278.852 95.8443 278.378 96.2752 277.811 96.542C277.245 96.8088 276.611 96.8991 275.992 96.8011C275.373 96.7032 274.798 96.4215 274.341 95.9927C273.885 95.5639 273.567 95.0077 273.431 94.3963C273.294 93.785 273.344 93.1466 273.575 92.5641C273.805 91.9817 274.206 91.4819 274.724 91.1298C275.242 90.7776 275.854 90.5893 276.48 90.5893C277.282 90.5649 278.061 90.8596 278.646 91.4086C279.23 91.9577 279.573 92.7162 279.6 93.5179ZM294.158 93.5179C294.197 94.1431 294.048 94.7657 293.729 95.305C293.41 95.8443 292.936 96.2752 292.37 96.542C291.803 96.8088 291.169 96.8991 290.55 96.8011C289.931 96.7032 289.356 96.4215 288.899 95.9927C288.443 95.5639 288.126 95.0077 287.989 94.3963C287.852 93.785 287.902 93.1466 288.133 92.5641C288.364 91.9817 288.764 91.4819 289.282 91.1298C289.8 90.7776 290.412 90.5893 291.039 90.5893C291.84 90.5649 292.619 90.8596 293.204 91.4086C293.788 91.9577 294.131 92.7162 294.158 93.5179Z" fill="#FE7D6B"/>
<path fill-rule="evenodd" clip-rule="evenodd" d="M281.122 97.2209C281.197 97.0711 281.379 97.0104 281.529 97.0853C283.409 98.0251 285.006 98.0209 286.128 97.7897C286.691 97.6737 287.136 97.4999 287.439 97.3563C287.591 97.2846 287.706 97.2206 287.782 97.1754C287.821 97.1529 287.849 97.1351 287.867 97.1234C287.876 97.1176 287.882 97.1133 287.886 97.1107L287.89 97.1083L287.89 97.1081L287.89 97.1081C288.027 97.0121 288.216 97.0454 288.312 97.1824C288.408 97.3196 288.375 97.5087 288.238 97.6049L288.064 97.3566C288.238 97.6049 288.238 97.605 288.238 97.6051L288.237 97.6054L288.236 97.606L288.234 97.6078L288.225 97.6135C288.218 97.6182 288.209 97.6246 288.197 97.6325C288.172 97.6484 288.137 97.6706 288.091 97.6974C288.001 97.7512 287.869 97.8241 287.699 97.9045C287.36 98.0652 286.868 98.2564 286.25 98.3838C285.01 98.6394 283.272 98.6352 281.258 97.6279C281.108 97.5529 281.047 97.3708 281.122 97.2209Z" fill="#FE7D6B"/>
<path fill-rule="evenodd" clip-rule="evenodd" d="M286.775 173.224C286.775 173.224 286.775 173.224 286.475 173.18C286.175 173.136 286.175 173.136 286.175 173.136L286.175 173.135L286.175 173.131L286.177 173.116C286.179 173.103 286.182 173.083 286.186 173.056C286.193 173.002 286.204 172.921 286.217 172.815C286.243 172.604 286.28 172.292 286.32 171.892C286.4 171.092 286.493 169.941 286.548 168.539C286.658 165.735 286.611 161.932 285.99 157.932C284.745 149.916 281.21 141.211 272.109 138.049L272.308 137.476C281.736 140.752 285.334 149.756 286.589 157.839C287.218 161.889 287.265 165.733 287.154 168.563C287.099 169.979 287.004 171.142 286.923 171.952C286.883 172.357 286.846 172.674 286.819 172.89C286.805 172.999 286.794 173.081 286.787 173.138C286.783 173.166 286.78 173.187 286.778 173.201L286.776 173.218L286.775 173.224Z" fill="#FDFDFF"/>
<path d="M280.728 143.821C280.728 143.821 268.572 141.031 262.961 149.22C262.961 149.22 275.749 152.677 280.728 143.821ZM284.877 151.83C284.877 151.83 287.353 141.654 297.525 144.602C297.525 144.602 293.751 153.378 284.877 151.83ZM286.7 161.345C286.7 161.345 282.523 156.03 270.543 161.345C270.543 161.345 277.986 168.162 286.7 161.345ZM286.7 167.569C286.7 167.569 289.704 158.47 300.065 161.048C300.065 161.048 295.874 170.822 286.7 167.569Z" fill="#FDFDFF"/>
<path d="M285.805 73.9328C285.805 73.9328 292.499 73.8085 294.157 78.051C295.816 82.2934 297.701 96.5919 289.898 103.922C289.898 103.922 284.287 128.293 295.915 145.58H323.921C323.921 145.58 330.29 126.776 320.584 120.104C310.879 113.431 309.059 94.7563 308.453 91.3552C307.846 87.9541 299.535 64.9044 287.919 67.9373" fill="#071B40"/>
<mask id="mask5_94_57801" style="mask-type:luminance" maskUnits="userSpaceOnUse" x="285" y="67" width="41" height="79">
<path d="M285.805 73.9328C285.805 73.9328 292.499 73.8085 294.157 78.051C295.816 82.2934 297.701 96.5919 289.898 103.922C289.898 103.922 284.287 128.293 295.915 145.58H323.921C323.921 145.58 330.29 126.776 320.584 120.104C310.879 113.431 309.059 94.7563 308.453 91.3552C307.846 87.9541 299.535 64.9044 287.919 67.9373" fill="white"/>
</mask>
<g mask="url(#mask5_94_57801)">
<path opacity="0.63" fill-rule="evenodd" clip-rule="evenodd" d="M291.543 71.3783C291.653 71.2516 291.844 71.2378 291.971 71.3473L291.772 71.5767C291.971 71.3473 291.971 71.3472 291.971 71.3473L291.972 71.348L291.973 71.3495L291.98 71.355L292.003 71.3756C292.023 71.3937 292.053 71.4205 292.092 71.4557C292.17 71.5262 292.283 71.6307 292.428 71.7685C292.717 72.044 293.13 72.4525 293.63 72.9872C294.631 74.0564 295.98 75.6311 297.38 77.6568C300.179 81.7068 303.187 87.5697 304.003 94.8065C304.81 101.957 306.939 111.585 310.57 119.413C312.385 123.327 314.569 126.774 317.136 129.238C319.7 131.699 322.634 133.169 325.967 133.164C326.135 133.164 326.27 133.299 326.271 133.467C326.271 133.634 326.135 133.77 325.968 133.771C322.438 133.775 319.361 132.214 316.716 129.676C314.074 127.141 311.853 123.62 310.02 119.668C306.353 111.764 304.212 102.069 303.401 94.8745C302.599 87.7662 299.642 81.9972 296.881 78.0016C295.501 76.0045 294.171 74.453 293.187 73.4016C292.696 72.876 292.291 72.4757 292.009 72.2075C291.869 72.0734 291.759 71.9723 291.685 71.9051C291.648 71.8715 291.62 71.8464 291.601 71.8299L291.58 71.8115L291.575 71.8072L291.574 71.8063" fill="#0E3680"/>
<path opacity="0.62" fill-rule="evenodd" clip-rule="evenodd" d="M296.779 93.9345C296.944 93.9081 297.1 94.0208 297.126 94.1862L296.827 94.234L296.527 94.2818C296.501 94.1164 296.614 93.9609 296.779 93.9345ZM296.827 94.234C296.527 94.2818 296.527 94.2815 296.527 94.2818L296.532 94.3136L296.547 94.4066C296.561 94.4886 296.581 94.6103 296.607 94.7692C296.66 95.087 296.74 95.5537 296.844 96.1498C297.053 97.3422 297.363 99.0527 297.768 101.126C298.577 105.273 299.766 110.874 301.285 116.688C302.803 122.5 304.653 128.534 306.784 133.542C307.85 136.047 308.989 138.302 310.196 140.147C311.401 141.989 312.687 143.442 314.052 144.321C314.192 144.412 314.38 144.371 314.471 144.23C314.561 144.09 314.521 143.902 314.38 143.811C313.117 142.998 311.887 141.624 310.704 139.815C309.523 138.01 308.4 135.79 307.342 133.305C305.228 128.335 303.387 122.334 301.872 116.534C300.358 110.737 299.171 105.149 298.363 101.01C297.959 98.9408 297.65 97.2342 297.441 96.0452C297.337 95.4507 297.259 94.9856 297.206 94.6693C297.179 94.5112 297.159 94.3902 297.146 94.3089L297.131 94.2169L297.126 94.1862C297.126 94.1859 297.126 94.1862 296.827 94.234Z" fill="#0E3680"/>
<path opacity="0.63" fill-rule="evenodd" clip-rule="evenodd" d="M291.668 101.501C291.825 101.444 291.999 101.525 292.057 101.682L291.772 101.786L291.487 101.89C291.43 101.733 291.511 101.559 291.668 101.501ZM291.772 101.786C291.487 101.89 291.487 101.89 291.487 101.89L291.498 101.919L291.528 102.004C291.555 102.079 291.596 102.19 291.648 102.336C291.752 102.628 291.903 103.057 292.093 103.605C292.473 104.701 293.005 106.275 293.617 108.181C294.841 111.995 296.381 117.139 297.647 122.464C298.913 127.793 299.901 133.287 300.027 137.807C300.09 140.068 299.938 142.069 299.505 143.677C299.072 145.288 298.368 146.471 297.355 147.147C297.215 147.24 297.178 147.429 297.271 147.568C297.364 147.707 297.552 147.745 297.692 147.652C298.874 146.862 299.637 145.521 300.091 143.835C300.545 142.147 300.698 140.081 300.633 137.79C300.505 133.208 299.506 127.666 298.237 122.324C296.966 116.979 295.422 111.819 294.195 107.996C293.581 106.085 293.047 104.507 292.666 103.406C292.476 102.856 292.323 102.426 292.219 102.132C292.167 101.986 292.126 101.873 292.099 101.797L292.068 101.712L292.057 101.682C292.057 101.682 292.057 101.682 291.772 101.786Z" fill="#0E3680"/>
</g>
<path d="M265.064 97.7895C267.032 97.7895 268.627 96.1671 268.627 94.1657C268.627 92.1644 267.032 90.542 265.064 90.542C263.096 90.542 261.5 92.1644 261.5 94.1657C261.5 96.1671 263.096 97.7895 265.064 97.7895Z" fill="#FDFDFF"/>
<path d="M165.855 207.342H17.6798C7.91768 207.342 0.00390625 215.256 0.00390625 225.018V332.012C0.00390625 341.774 7.91768 349.688 17.6798 349.688H165.855C175.618 349.688 183.531 341.774 183.531 332.012V225.018C183.531 215.256 175.618 207.342 165.855 207.342Z" fill="#FFD5C4"/>
<path d="M71.5816 263.455C71.5816 263.455 66.1223 242.342 77.3442 229.604C88.566 216.865 93.509 223.526 102.305 223.526C111.549 223.526 120.715 245.667 104.944 265.077L71.5816 263.455Z" fill="#FDFDFF"/>
<path d="M77.9524 278.726C77.9524 278.726 46.7132 291.768 44.8934 294.194C43.0737 296.62 28.5156 349.393 28.5156 349.393H157.718L151.035 301.657C150.499 297.825 148.846 294.236 146.283 291.338C143.719 288.441 140.359 286.362 136.622 285.361L106.159 277.209L77.9524 278.726Z" fill="#FF7347"/>
<mask id="mask6_94_57801" style="mask-type:luminance" maskUnits="userSpaceOnUse" x="27" y="277" width="130" height="73">
<path d="M76.7688 278.599C76.7688 278.599 45.5296 291.641 43.7098 294.067C41.8901 296.494 27.332 349.267 27.332 349.267H156.535L149.851 301.53C149.315 297.699 147.662 294.11 145.099 291.212C142.536 288.314 139.176 286.235 135.438 285.235L104.975 277.083L76.7688 278.599Z" fill="white"/>
</mask>
<g mask="url(#mask6_94_57801)">
<path fill-rule="evenodd" clip-rule="evenodd" d="M36.9728 289.167C34.0832 287.358 31.2361 285.575 25.5106 285.575V284.969C31.409 284.969 34.3745 286.825 37.2968 288.654L37.2988 288.656C40.1885 290.465 43.0356 292.248 48.761 292.248C54.4868 292.248 57.334 290.465 60.2239 288.656L60.2259 288.654C63.1483 286.825 66.114 284.969 72.0127 284.969C77.9114 284.969 80.8771 286.825 83.7995 288.654L83.8015 288.656C86.6913 290.465 89.5385 292.248 95.2643 292.248C100.99 292.248 103.837 290.465 106.727 288.656L106.729 288.654C109.652 286.825 112.617 284.969 118.516 284.969C124.416 284.969 127.382 286.825 130.304 288.654L130.307 288.656C133.197 290.465 136.044 292.248 141.771 292.248C147.497 292.248 150.345 290.465 153.235 288.656L153.237 288.654C156.16 286.825 159.126 284.969 165.025 284.969V285.575C159.299 285.575 156.451 287.358 153.561 289.167L153.559 289.169C150.636 290.998 147.67 292.854 141.771 292.854C135.871 292.854 132.905 290.998 129.983 289.169L129.981 289.167C127.09 287.358 124.243 285.575 118.516 285.575C112.79 285.575 109.943 287.358 107.053 289.167L107.051 289.169C104.129 290.998 101.163 292.854 95.2643 292.854C89.3657 292.854 86.3999 290.998 83.4776 289.169L83.4755 289.167C80.5857 287.358 77.7385 285.575 72.0127 285.575C66.2869 285.575 63.4397 287.358 60.5499 289.167L60.5478 289.169C57.6254 290.998 54.6597 292.854 48.761 292.854C42.8627 292.854 39.8971 290.998 36.9749 289.169L36.9728 289.167ZM36.3662 304.332C33.4766 302.523 30.6295 300.74 24.904 300.74V300.133C30.8024 300.133 33.768 301.989 36.6902 303.819L36.6922 303.82C39.5819 305.63 42.429 307.412 48.1545 307.412C53.8803 307.412 56.7275 305.63 59.6173 303.82L59.6193 303.819C62.5417 301.989 65.5074 300.133 71.4061 300.133C77.3048 300.133 80.2705 301.989 83.1929 303.819L83.1949 303.82C86.0847 305.63 88.9319 307.412 94.6577 307.412C100.384 307.412 103.231 305.63 106.121 303.82L106.123 303.819C109.045 301.989 112.011 300.133 117.909 300.133C123.809 300.133 126.775 301.989 129.698 303.819L129.7 303.82C132.59 305.63 135.438 307.412 141.164 307.412C146.89 307.412 149.738 305.63 152.628 303.82L152.63 303.819C155.553 301.989 158.519 300.133 164.419 300.133V300.74C158.692 300.74 155.844 302.523 152.954 304.332L152.952 304.333C150.029 306.163 147.063 308.019 141.164 308.019C135.265 308.019 132.299 306.163 129.376 304.333L129.374 304.332C126.484 302.523 123.636 300.74 117.909 300.74C112.184 300.74 109.336 302.523 106.447 304.332L106.445 304.333C103.522 306.163 100.556 308.019 94.6577 308.019C88.7591 308.019 85.7934 306.163 82.871 304.333L82.8689 304.332C79.9791 302.523 77.1319 300.74 71.4061 300.74C65.6803 300.74 62.8331 302.523 59.9433 304.332L59.9412 304.333C57.0188 306.163 54.0531 308.019 48.1545 308.019C42.2561 308.019 39.2905 306.163 36.3683 304.333L36.3662 304.332ZM35.1531 325.562C32.2634 323.753 29.4163 321.97 23.6909 321.97V321.364C29.5892 321.364 32.5548 323.22 35.477 325.05L35.4791 325.051C38.3687 326.86 41.2158 328.643 46.9413 328.643C52.6671 328.643 55.5143 326.86 58.4041 325.051L58.4062 325.05C61.3285 323.22 64.2943 321.364 70.1929 321.364C76.0916 321.364 79.0573 323.22 81.9797 325.05L81.9818 325.051C84.8716 326.86 87.7188 328.643 93.4446 328.643C99.1704 328.643 102.018 326.86 104.907 325.051L104.909 325.05C107.832 323.22 110.798 321.364 116.696 321.364C122.596 321.364 125.562 323.22 128.485 325.05L128.487 325.051C131.377 326.86 134.225 328.643 139.951 328.643C145.677 328.643 148.525 326.86 151.415 325.051L151.417 325.05C154.34 323.22 157.306 321.364 163.206 321.364V321.97C157.479 321.97 154.631 323.753 151.741 325.563L151.739 325.564C148.816 327.394 145.85 329.25 139.951 329.25C134.052 329.25 131.086 327.394 128.163 325.564L128.161 325.563C125.271 323.753 122.423 321.97 116.696 321.97C110.97 321.97 108.123 323.753 105.233 325.562L105.231 325.564C102.309 327.394 99.3432 329.25 93.4446 329.25C87.5459 329.25 84.5802 327.394 81.6578 325.564L81.6558 325.562C78.7659 323.753 75.9187 321.97 70.1929 321.97C64.4671 321.97 61.6199 323.753 58.7301 325.562L58.7281 325.564C55.8057 327.394 52.84 329.25 46.9413 329.25C41.0429 329.25 38.0774 327.394 35.1551 325.564L35.1531 325.562ZM33.3333 343.153C30.4436 341.344 27.5966 339.561 21.8711 339.561V338.955C27.7695 338.955 30.735 340.811 33.6573 342.641L33.6593 342.642C36.549 344.451 39.396 346.234 45.1215 346.234C50.8473 346.234 53.6945 344.451 56.5843 342.642L56.5864 342.641C59.5088 340.811 62.4745 338.955 68.3732 338.955C74.2718 338.955 77.2375 340.811 80.1599 342.641L80.162 342.642C83.0518 344.451 85.899 346.234 91.6248 346.234C97.3506 346.234 100.198 344.451 103.088 342.642L103.09 342.641C106.012 340.811 108.978 338.955 114.876 338.955C120.776 338.955 123.742 340.811 126.665 342.641L126.667 342.642C129.557 344.451 132.405 346.234 138.131 346.234C143.857 346.234 146.705 344.451 149.595 342.642L149.597 342.641C152.52 340.811 155.486 338.955 161.386 338.955V339.561C155.659 339.561 152.811 341.344 149.921 343.154L149.919 343.155C146.996 344.984 144.03 346.84 138.131 346.84C132.232 346.84 129.266 344.984 126.343 343.155L126.341 343.154C123.451 341.344 120.603 339.561 114.876 339.561C109.151 339.561 106.303 341.344 103.414 343.153L103.412 343.155C100.489 344.984 97.5235 346.84 91.6248 346.84C85.7261 346.84 82.7604 344.984 79.838 343.155L79.836 343.153C76.9462 341.344 74.099 339.561 68.3732 339.561C62.6474 339.561 59.8002 341.344 56.9104 343.153L56.9083 343.155C53.9859 344.984 51.0202 346.84 45.1215 346.84C39.2232 346.84 36.2576 344.984 33.3354 343.155L33.3333 343.153Z" fill="#FDFDFF"/>
</g>
<path d="M104.038 263.261C104.038 263.261 104.317 265.558 104.683 268.297C105.17 271.931 105.81 276.345 106.155 277.21C106.155 277.21 92.5073 286.915 77.9492 278.726C77.9492 278.726 83.6918 267.848 82.9596 250.624L104.038 263.261Z" fill="#FCC4AC"/>
<path opacity="0.78" d="M104.943 268.297C104.943 268.297 90.038 267.602 82.3477 251.34L104.943 258.102V268.297Z" fill="#FE7D6B"/>
<path d="M82.961 244.206C85.1483 244.432 82.3483 232.398 95.6429 231.311C96.8118 231.055 110.365 229.578 110.201 239.399C110.06 247.759 110.861 259.55 100.45 263.135C99.0563 263.6 97.543 263.556 96.1785 263.011C92.6566 261.642 85.6118 258.163 82.3483 251.34C82.4903 250.591 80.3769 253.457 77.9506 247.694C77.9506 247.694 75.9852 236.688 82.961 244.206Z" fill="#FCC4AC"/>
<path fill-rule="evenodd" clip-rule="evenodd" d="M90.9922 240.814C90.9922 240.479 91.2638 240.208 91.5988 240.208H96.4515C96.7865 240.208 97.058 240.479 97.058 240.814C97.058 241.149 96.7865 241.421 96.4515 241.421H91.5988C91.2638 241.421 90.9922 241.149 90.9922 240.814ZM103.124 240.814C103.124 240.479 103.395 240.208 103.73 240.208H108.583C108.918 240.208 109.19 240.479 109.19 240.814C109.19 241.149 108.918 241.421 108.583 241.421H103.73C103.395 241.421 103.124 241.149 103.124 240.814Z" fill="#FDFDFF"/>
<path d="M100.879 244.573C101.009 243.965 104.966 239.607 109.102 243.63C109.482 244.066 106.959 249.147 100.879 244.573Z" fill="#F8F9FD"/>
<mask id="mask7_94_57801" style="mask-type:luminance" maskUnits="userSpaceOnUse" x="100" y="241" width="10" height="6">
<path d="M100.879 244.573C101.009 243.965 104.966 239.607 109.102 243.63C109.482 244.066 106.959 249.147 100.879 244.573Z" fill="white"/>
</mask>
<g mask="url(#mask7_94_57801)">
<path d="M106.094 247.068C107.723 247.068 109.043 245.881 109.043 244.417C109.043 242.952 107.723 241.765 106.094 241.765C104.465 241.765 103.145 242.952 103.145 244.417C103.145 245.881 104.465 247.068 106.094 247.068Z" fill="#071B40"/>
</g>
<path d="M88.3516 244.573C88.4826 243.965 92.44 239.607 96.5757 243.63C96.9542 244.066 94.4314 249.147 88.3516 244.573Z" fill="#F8F9FD"/>
<mask id="mask8_94_57801" style="mask-type:luminance" maskUnits="userSpaceOnUse" x="88" y="241" width="9" height="6">
<path d="M88.3516 244.573C88.4826 243.965 92.44 239.607 96.5757 243.63C96.9542 244.066 94.4314 249.147 88.3516 244.573Z" fill="white"/>
</mask>
<g mask="url(#mask8_94_57801)">
<path d="M94.1719 247.068C95.8007 247.068 97.1211 245.881 97.1211 244.417C97.1211 242.952 95.8007 241.765 94.1719 241.765C92.5431 241.765 91.2227 242.952 91.2227 244.417C91.2227 245.881 92.5431 247.068 94.1719 247.068Z" fill="#071B40"/>
</g>
<path fill-rule="evenodd" clip-rule="evenodd" d="M99.1797 246.188C99.1801 246.021 99.3163 245.885 99.4838 245.886C99.6127 245.886 99.7376 245.934 99.8391 245.986C99.9471 246.041 100.061 246.116 100.177 246.204C100.41 246.381 100.671 246.627 100.932 246.915C101.453 247.488 102 248.255 102.327 249.027C102.647 249.782 102.796 250.637 102.358 251.299C101.916 251.967 100.973 252.298 99.4721 252.244C99.3047 252.238 99.1739 252.097 99.1799 251.93C99.1859 251.762 99.3265 251.632 99.4939 251.638C100.945 251.69 101.594 251.355 101.852 250.965C102.114 250.569 102.069 249.973 101.768 249.264C101.475 248.571 100.973 247.861 100.483 247.323C100.239 247.054 100.005 246.836 99.8099 246.687C99.7121 246.612 99.6296 246.56 99.5649 246.527C99.5054 246.497 99.4791 246.493 99.4792 246.492C99.4792 246.492 99.4802 246.492 99.4822 246.492C99.3147 246.492 99.1793 246.356 99.1797 246.188Z" fill="#FE7D6B"/>
<path opacity="0.49" d="M93.9824 250.623C94.0218 251.249 93.8723 251.871 93.5535 252.41C93.2346 252.95 92.7611 253.381 92.1943 253.647C91.6274 253.914 90.9935 254.005 90.3748 253.907C89.756 253.809 89.181 253.527 88.7243 253.098C88.2676 252.669 87.9503 252.113 87.8136 251.502C87.6769 250.89 87.7271 250.252 87.9577 249.67C88.1883 249.087 88.5886 248.587 89.1067 248.235C89.6248 247.883 90.2368 247.695 90.8633 247.695C91.665 247.67 92.4437 247.965 93.0284 248.514C93.6132 249.063 93.9562 249.822 93.9824 250.623ZM109.754 250.623C109.793 251.249 109.644 251.871 109.325 252.41C109.006 252.95 108.532 253.381 107.965 253.647C107.399 253.914 106.765 254.005 106.146 253.907C105.527 253.809 104.952 253.527 104.496 253.098C104.039 252.669 103.722 252.113 103.585 251.502C103.448 250.89 103.498 250.252 103.729 249.67C103.959 249.087 104.36 248.587 104.878 248.235C105.396 247.883 106.008 247.695 106.635 247.695C107.436 247.67 108.215 247.965 108.8 248.514C109.384 249.063 109.727 249.822 109.754 250.623Z" fill="#FE7D6B"/>
<path fill-rule="evenodd" clip-rule="evenodd" d="M102.277 254.214C102.414 254.118 102.603 254.151 102.699 254.288C102.795 254.425 102.762 254.615 102.625 254.711L102.45 254.462C102.625 254.711 102.624 254.711 102.624 254.711L102.624 254.711L102.623 254.712L102.62 254.714L102.612 254.719C102.605 254.724 102.596 254.731 102.583 254.738C102.559 254.754 102.524 254.776 102.478 254.803C102.387 254.857 102.255 254.93 102.086 255.01C101.746 255.171 101.255 255.362 100.637 255.49C99.5344 255.717 98.0384 255.739 96.3043 255.033C96.4171 255.265 96.5819 255.54 96.8193 255.821C97.4379 256.552 98.5735 257.35 100.652 257.496C100.819 257.508 100.945 257.653 100.933 257.82C100.922 257.987 100.777 258.113 100.609 258.101C98.3745 257.944 97.0847 257.074 96.3562 256.213C95.9952 255.786 95.7779 255.369 95.6504 255.056C95.5866 254.899 95.545 254.768 95.5191 254.674C95.5061 254.627 95.497 254.59 95.491 254.563C95.488 254.549 95.4857 254.539 95.4841 254.531L95.4822 254.521L95.4816 254.518L95.4814 254.516L95.4813 254.516C95.4813 254.516 95.4812 254.515 95.7799 254.462L95.4812 254.515C95.4612 254.403 95.5066 254.288 95.5984 254.219C95.6903 254.151 95.813 254.14 95.9155 254.191C97.7952 255.131 99.3925 255.127 100.514 254.896C101.077 254.78 101.523 254.606 101.826 254.462C101.977 254.39 102.093 254.326 102.169 254.281C102.207 254.259 102.235 254.241 102.253 254.229C102.262 254.223 102.269 254.219 102.273 254.217L102.276 254.214L102.277 254.214L102.277 254.214Z" fill="#FE7D6B"/>
<path d="M100.631 231.083C100.631 231.083 98.5866 243.959 82.9609 244.206C82.9609 244.206 86.0054 224.082 100.631 231.083Z" fill="#FDFDFF"/>
<path fill-rule="evenodd" clip-rule="evenodd" d="M58.8438 349.393V319.064H59.4503V349.393H58.8438ZM127.995 349.393V319.064H128.601V349.393H127.995Z" fill="#275BAD"/>
<path d="M361.176 207.342H213C203.238 207.342 195.324 215.256 195.324 225.018V332.012C195.324 341.774 203.238 349.688 213 349.688H361.176C370.938 349.688 378.852 341.774 378.852 332.012V225.018C378.852 215.256 370.938 207.342 361.176 207.342Z" fill="#DED0CA"/>
<path d="M285.1 227.065C285.1 227.065 269.632 226.458 267.509 232.221C265.386 237.983 260.938 241.819 263.161 244.757C265.262 247.531 266.595 254.093 269.781 256.852C269.966 257.014 270.161 257.163 270.365 257.3C273.979 259.72 294.072 258.699 294.072 258.699L297.466 237.452C297.466 237.452 298.04 235.355 299.355 234.445C300.669 233.535 298.343 220.898 285.1 227.065Z" fill="#6E000E"/>
<mask id="mask9_94_57801" style="mask-type:luminance" maskUnits="userSpaceOnUse" x="262" y="225" width="38" height="34">
<path d="M285.1 227.065C285.1 227.065 269.632 226.458 267.509 232.221C265.386 237.983 260.938 241.819 263.161 244.757C265.262 247.531 266.595 254.093 269.781 256.852C269.966 257.014 270.161 257.163 270.365 257.3C273.979 259.72 294.072 258.699 294.072 258.699L297.466 237.452C297.466 237.452 298.04 235.355 299.355 234.445C300.669 233.535 298.343 220.898 285.1 227.065Z" fill="white"/>
</mask>
<g mask="url(#mask9_94_57801)">
<path opacity="0.63" fill-rule="evenodd" clip-rule="evenodd" d="M286.921 228.986L286.783 228.716C286.634 228.792 286.575 228.975 286.651 229.124C286.728 229.273 286.91 229.332 287.059 229.256L287.06 229.256L287.064 229.254L287.081 229.245C287.096 229.238 287.12 229.226 287.151 229.212C287.214 229.182 287.308 229.14 287.43 229.089C287.672 228.988 288.024 228.854 288.454 228.726C289.316 228.47 290.484 228.243 291.723 228.342C292.958 228.441 294.262 228.864 295.416 229.908C296.573 230.954 297.604 232.645 298.251 235.32C298.29 235.483 298.454 235.583 298.617 235.544C298.78 235.504 298.88 235.34 298.841 235.178C298.173 232.417 297.093 230.606 295.823 229.458C294.552 228.309 293.114 227.845 291.771 227.738C290.433 227.63 289.187 227.876 288.281 228.145C287.827 228.279 287.455 228.421 287.196 228.529C287.066 228.583 286.964 228.629 286.894 228.662C286.859 228.678 286.832 228.692 286.813 228.701L286.792 228.712L286.786 228.715L286.784 228.715L286.783 228.716C286.783 228.716 286.783 228.716 286.921 228.986ZM277.204 228.902C277.25 229.063 277.157 229.231 276.997 229.277L276.996 229.278L276.992 229.279L276.976 229.283C276.961 229.288 276.94 229.294 276.912 229.303C276.855 229.32 276.772 229.345 276.666 229.379C276.453 229.447 276.149 229.548 275.783 229.679C275.051 229.942 274.077 230.326 273.105 230.812C272.131 231.299 271.174 231.881 270.465 232.535C269.751 233.194 269.33 233.887 269.33 234.597C269.33 235.496 268.936 236.383 268.51 237.344L268.492 237.384C268.051 238.379 267.553 239.503 267.279 240.932C266.734 243.776 267.064 247.897 270.724 254.559C270.805 254.706 270.751 254.89 270.604 254.971C270.458 255.052 270.273 254.998 270.193 254.851C266.488 248.108 266.103 243.842 266.683 240.818C266.971 239.317 267.494 238.138 267.934 237.146L267.938 237.138C268.387 236.126 268.724 235.354 268.724 234.597C268.724 233.638 269.289 232.796 270.053 232.09C270.823 231.38 271.837 230.768 272.834 230.269C273.834 229.769 274.832 229.376 275.578 229.108C275.951 228.974 276.263 228.871 276.482 228.801C276.591 228.766 276.677 228.74 276.736 228.722C276.766 228.713 276.788 228.706 276.804 228.702L276.822 228.696L276.827 228.695L276.828 228.695C276.828 228.695 276.828 228.694 276.911 228.981L276.828 228.694C276.989 228.648 277.157 228.741 277.204 228.902Z" fill="#BF0019"/>
</g>
<path d="M265.386 278.726C265.386 278.726 227.474 290.413 225.655 292.839C223.835 295.266 215.949 349.393 215.949 349.393H345.152L341.512 313.301C340.416 305.468 338.467 286.28 330.826 284.236L293.592 277.209L265.386 278.726Z" fill="#009FA3"/>
<mask id="mask10_94_57801" style="mask-type:luminance" maskUnits="userSpaceOnUse" x="215" y="277" width="131" height="73">
<path d="M265.386 278.726C265.386 278.726 227.474 290.413 225.655 292.839C223.835 295.266 215.949 349.393 215.949 349.393H345.152L341.512 313.301C340.416 305.468 338.467 286.28 330.826 284.236L293.592 277.209L265.386 278.726Z" fill="white"/>
</mask>
<g mask="url(#mask10_94_57801)">
<path d="M305.542 274.626C300.15 280.087 294.28 286.294 294.15 294.469C294.039 301.451 298.79 306.318 305.186 308.259C313.009 310.632 321.225 308.674 329.144 310.248C334.68 311.35 337.673 314.781 341.915 318.083C344.289 319.931 347.379 321.357 350.419 320.446C357.678 318.268 358.192 307.592 355.74 301.913C355.392 301.109 354.216 301.804 354.561 302.602C356.566 307.244 356.273 313.272 352.812 317.209C348.359 322.274 342.942 317.194 339.345 313.964C333.379 308.608 326.119 308.205 318.441 308.234C311.076 308.261 301.151 308.086 297.003 300.749C291.696 291.362 300.36 281.817 306.507 275.591C307.125 274.966 306.16 274 305.542 274.627L305.542 274.626ZM222.83 298.156C228.337 298.03 234.219 297.937 238.996 301.105C243.166 303.871 245.786 308.374 248.229 312.611C252.044 319.231 256.822 327.384 265.292 328.19C269.785 328.617 274.154 326.809 277.889 324.464C282.026 321.867 286.3 317.748 291.464 317.648C297.143 317.538 301.025 322.205 303.863 326.556C307.043 331.263 309.575 336.377 311.388 341.76C313.37 348.014 313.713 354.627 311.317 360.819C309.069 366.628 304.983 371.524 301.047 376.258C300.489 376.929 301.45 377.9 302.013 377.223C308.752 369.118 315.21 360.469 314.311 349.354C313.882 344.053 312.104 338.962 309.785 334.207C307.463 329.447 304.708 324.427 300.961 320.62C298.053 317.665 294.262 315.755 290.042 316.418C285.313 317.16 281.532 320.499 277.639 323.009C272.109 326.575 265.388 328.55 259.484 324.649C254.869 321.599 252.101 316.593 249.408 311.923C246.844 307.478 244.066 302.817 239.685 299.927C234.698 296.637 228.58 296.66 222.83 296.791C222.654 296.799 222.488 296.874 222.366 297.001C222.244 297.128 222.176 297.298 222.176 297.474C222.176 297.65 222.244 297.819 222.366 297.946C222.488 298.074 222.654 298.149 222.83 298.156ZM247.69 282.554C251.32 292.174 263.238 289.58 270.698 286.943C274.884 285.463 279.008 283.484 282.218 280.352C284.15 278.468 285.391 275.934 287.48 274.232C289.985 272.189 293.299 271.986 296.402 271.809C297.276 271.759 297.281 270.394 296.402 270.444C293.005 270.638 289.34 270.905 286.588 273.142C284.806 274.592 283.72 276.693 282.214 278.391C280.7 280.057 278.937 281.478 276.988 282.604C269.991 286.751 253.113 293.077 249.006 282.191C248.698 281.377 247.379 281.729 247.69 282.554ZM348.99 333.11C344.319 333.579 339.06 333.971 334.649 335.661C331.767 336.765 330.9 338.957 330.608 341.887C330.144 346.539 331.189 350.533 332.299 354.978C332.754 356.798 332.953 358.472 332.077 360.218C331.431 361.505 329.903 362.371 329.015 363.49C328.083 364.554 327.577 365.925 327.595 367.34C327.602 367.516 327.677 367.682 327.804 367.804C327.932 367.926 328.101 367.994 328.277 367.994C328.453 367.994 328.623 367.926 328.75 367.804C328.877 367.682 328.952 367.516 328.959 367.34C328.952 363.663 333.455 362.323 334.061 358.795C334.637 355.445 332.605 351.891 332.132 348.611C331.531 344.445 330.922 338.216 335.856 336.713C340.054 335.433 344.644 334.911 348.99 334.474C349.856 334.388 349.865 333.023 348.99 333.11Z" fill="#FDFDFF"/>
<path d="M218.372 317.591C226.731 317.755 236.088 318.855 243.764 322.438C247.909 324.373 249.428 327.39 247.956 331.747C247.213 333.943 245.925 336.357 246.49 338.752C247.909 344.766 256.796 342.007 258.49 348.069C261.09 357.372 249.947 360.429 243.029 359.954C242.153 359.894 242.157 361.259 243.029 361.319C249.673 361.775 258.214 360.01 259.882 352.43C260.445 349.876 260.078 346.974 258.38 344.908C256.093 342.124 252.347 342.635 249.558 340.797C245.29 337.985 249.821 332.544 250.043 328.847C250.226 325.81 248.414 323.52 245.909 322.021C242.165 319.782 237.45 318.765 233.24 317.876C228.348 316.86 223.37 316.307 218.373 316.227C218.197 316.234 218.031 316.309 217.909 316.436C217.787 316.563 217.719 316.733 217.719 316.909C217.719 317.085 217.787 317.254 217.909 317.382C218.031 317.509 218.197 317.584 218.373 317.591H218.372Z" fill="#FDFDFF"/>
</g>
<path d="M293.593 277.209C293.593 277.209 279.945 286.915 265.387 278.726C265.387 278.726 270.233 269.554 270.458 254.705C270.47 253.674 270.464 252.618 270.427 251.532C270.421 251.229 270.409 250.926 270.397 250.623L273.394 252.418L291.476 263.258C291.476 263.258 291.755 265.557 292.119 268.298C292.119 268.317 292.125 268.335 292.125 268.353C292.61 271.974 293.247 276.348 293.593 277.209Z" fill="#FCC4AC"/>
<path opacity="0.78" d="M292.126 268.353C289.584 268.747 274.316 268.571 270.458 254.705C270.149 253.601 269.924 252.476 269.785 251.338L270.428 251.532L273.394 252.418L291.477 263.258C291.477 263.258 291.756 265.557 292.12 268.299C292.12 268.317 292.126 268.335 292.126 268.353Z" fill="#FE7D6B"/>
<path d="M270.395 244.206C272.582 244.432 269.782 232.398 283.076 231.311C284.245 231.055 297.799 229.578 297.635 239.399C297.494 247.759 300.294 259.87 289.884 263.455C288.496 263.933 281.917 264.203 280.549 263.671C277.027 262.302 273.045 258.163 269.782 251.339C269.924 250.591 267.811 253.457 265.384 247.695C265.384 247.695 263.419 236.688 270.395 244.206Z" fill="#FCC4AC"/>
<path fill-rule="evenodd" clip-rule="evenodd" d="M278.426 240.208C278.426 239.873 278.697 239.601 279.032 239.601H283.885C284.22 239.601 284.492 239.873 284.492 240.208C284.492 240.543 284.22 240.814 283.885 240.814H279.032C278.697 240.814 278.426 240.543 278.426 240.208ZM290.557 240.208C290.557 239.873 290.829 239.601 291.164 239.601H296.017C296.352 239.601 296.623 239.873 296.623 240.208C296.623 240.543 296.352 240.814 296.017 240.814H291.164C290.829 240.814 290.557 240.543 290.557 240.208Z" fill="#6E000E"/>
<path d="M288.312 244.573C288.443 243.965 292.4 239.607 296.536 243.63C296.915 244.066 294.393 249.147 288.312 244.573Z" fill="#F8F9FD"/>
<mask id="mask11_94_57801" style="mask-type:luminance" maskUnits="userSpaceOnUse" x="288" y="241" width="9" height="6">
<path d="M288.312 244.573C288.443 243.965 292.4 239.607 296.536 243.63C296.915 244.066 294.393 249.147 288.312 244.573Z" fill="white"/>
</mask>
<g mask="url(#mask11_94_57801)">
<path d="M293.527 247.068C295.156 247.068 296.477 245.881 296.477 244.417C296.477 242.952 295.156 241.765 293.527 241.765C291.899 241.765 290.578 242.952 290.578 244.417C290.578 245.881 291.899 247.068 293.527 247.068Z" fill="#6E000E"/>
</g>
<path d="M275.789 244.573C275.92 243.965 279.877 239.607 284.013 243.63C284.392 244.066 281.869 249.147 275.789 244.573Z" fill="#F8F9FD"/>
<mask id="mask12_94_57801" style="mask-type:luminance" maskUnits="userSpaceOnUse" x="275" y="241" width="10" height="6">
<path d="M275.789 244.573C275.92 243.965 279.877 239.607 284.013 243.63C284.392 244.066 281.869 249.147 275.789 244.573Z" fill="white"/>
</mask>
<g mask="url(#mask12_94_57801)">
<path d="M281.613 247.068C283.242 247.068 284.563 245.881 284.563 244.417C284.563 242.952 283.242 241.765 281.613 241.765C279.984 241.765 278.664 242.952 278.664 244.417C278.664 245.881 279.984 247.068 281.613 247.068Z" fill="#6E000E"/>
</g>
<path fill-rule="evenodd" clip-rule="evenodd" d="M286.617 246.188C286.618 246.021 286.754 245.885 286.921 245.886C287.05 245.886 287.175 245.934 287.277 245.986C287.385 246.041 287.499 246.116 287.615 246.204C287.847 246.381 288.109 246.627 288.37 246.915C288.891 247.488 289.437 248.255 289.764 249.027C290.084 249.782 290.234 250.637 289.796 251.299C289.354 251.967 288.411 252.298 286.91 252.244C286.742 252.238 286.611 252.097 286.617 251.93C286.623 251.762 286.764 251.632 286.931 251.638C288.382 251.69 289.032 251.355 289.29 250.965C289.551 250.569 289.507 249.973 289.206 249.264C288.912 248.571 288.41 247.861 287.921 247.323C287.677 247.054 287.443 246.836 287.247 246.687C287.15 246.612 287.067 246.56 287.002 246.527C286.943 246.497 286.917 246.493 286.917 246.492C286.917 246.492 286.918 246.492 286.92 246.492C286.752 246.492 286.617 246.356 286.617 246.188Z" fill="#FE7D6B"/>
<path opacity="0.49" d="M281.42 250.623C281.459 251.249 281.31 251.871 280.991 252.41C280.672 252.95 280.199 253.381 279.632 253.647C279.065 253.914 278.431 254.005 277.812 253.907C277.194 253.809 276.618 253.527 276.162 253.098C275.705 252.669 275.388 252.113 275.251 251.502C275.114 250.89 275.165 250.252 275.395 249.67C275.626 249.087 276.026 248.587 276.544 248.235C277.062 247.883 277.674 247.695 278.301 247.695C279.103 247.67 279.881 247.965 280.466 248.514C281.051 249.063 281.394 249.822 281.42 250.623ZM297.191 250.623C297.23 251.249 297.081 251.871 296.762 252.41C296.443 252.95 295.97 253.381 295.403 253.647C294.836 253.914 294.202 254.005 293.583 253.907C292.965 253.809 292.39 253.527 291.933 253.098C291.476 252.669 291.159 252.113 291.022 251.502C290.886 250.89 290.936 250.252 291.166 249.67C291.397 249.087 291.797 248.587 292.315 248.235C292.834 247.883 293.446 247.695 294.072 247.695C294.874 247.67 295.652 247.965 296.237 248.514C296.822 249.063 297.165 249.822 297.191 250.623Z" fill="#FE7D6B"/>
<path fill-rule="evenodd" clip-rule="evenodd" d="M246.583 318.457C246.918 318.457 247.19 318.729 247.19 319.064V349.393C247.19 349.728 246.918 349.999 246.583 349.999C246.248 349.999 245.977 349.728 245.977 349.393V319.064C245.977 318.729 246.248 318.457 246.583 318.457ZM315.734 318.457C316.069 318.457 316.341 318.729 316.341 319.064V349.393C316.341 349.728 316.069 349.999 315.734 349.999C315.399 349.999 315.127 349.728 315.127 349.393V319.064C315.127 318.729 315.399 318.457 315.734 318.457Z" fill="#007A7D"/>
<path d="M285.25 231.083C285.25 231.083 283.604 232.473 284.048 234.293C284.492 236.113 281.167 239.864 270.395 244.206C270.395 244.206 271.147 227.721 285.25 231.083Z" fill="#6E000E"/>
<mask id="mask13_94_57801" style="mask-type:luminance" maskUnits="userSpaceOnUse" x="270" y="230" width="16" height="15">
<path d="M285.25 231.083C285.25 231.083 283.604 232.473 284.048 234.293C284.492 236.113 281.167 239.864 270.395 244.206C270.395 244.206 271.147 227.721 285.25 231.083Z" fill="white"/>
</mask>
<g mask="url(#mask13_94_57801)">
<path opacity="0.63" fill-rule="evenodd" clip-rule="evenodd" d="M275.023 234.562C274.68 235.34 274.541 236.029 274.629 236.514C274.746 237.154 274.637 237.929 274.432 238.705C274.225 239.488 273.91 240.305 273.585 241.042C273.26 241.781 272.923 242.445 272.666 242.925C272.538 243.165 272.43 243.359 272.354 243.494C272.316 243.561 272.285 243.614 272.265 243.649L272.241 243.69L272.235 243.701L272.232 243.705C272.232 243.705 272.232 243.705 271.971 243.55L272.232 243.705C272.147 243.849 271.961 243.897 271.817 243.811C271.673 243.726 271.625 243.54 271.71 243.396L271.711 243.395L271.712 243.393L271.718 243.383L271.74 243.345C271.76 243.311 271.789 243.26 271.826 243.195C271.9 243.064 272.006 242.874 272.131 242.639C272.383 242.169 272.713 241.518 273.03 240.798C273.348 240.076 273.649 239.291 273.845 238.55C274.043 237.802 274.125 237.13 274.033 236.622C273.912 235.959 274.107 235.135 274.468 234.317C274.833 233.489 275.386 232.624 276.037 231.862C276.688 231.1 277.447 230.428 278.23 229.998C279.011 229.57 279.852 229.364 280.638 229.605C280.798 229.655 280.888 229.824 280.838 229.984C280.789 230.145 280.619 230.235 280.459 230.185C279.891 230.011 279.227 230.144 278.522 230.53C277.821 230.915 277.117 231.532 276.499 232.256C275.882 232.978 275.362 233.794 275.023 234.562ZM284.072 232.724C284.072 232.724 284.072 232.724 284.047 233.027L284.072 232.724C284.239 232.738 284.363 232.885 284.349 233.052C284.336 233.218 284.189 233.343 284.022 233.329L284.021 233.329L284.012 233.328C284.004 233.328 283.992 233.327 283.976 233.326C283.943 233.324 283.893 233.322 283.828 233.32C283.7 233.317 283.512 233.317 283.282 233.328C282.821 233.352 282.195 233.422 281.53 233.61C280.201 233.987 278.748 234.822 278.108 236.667C277.886 237.308 277.674 237.954 277.466 238.589C277.042 239.885 276.633 241.133 276.184 242.184C275.847 242.972 275.479 243.672 275.051 244.219C274.621 244.767 274.117 245.177 273.504 245.352C273.343 245.398 273.175 245.304 273.129 245.143C273.083 244.982 273.177 244.814 273.338 244.768C273.787 244.64 274.193 244.33 274.573 243.845C274.955 243.358 275.298 242.713 275.626 241.946C276.065 240.918 276.459 239.714 276.878 238.435C277.088 237.794 277.304 237.134 277.535 236.468C278.263 234.371 279.923 233.435 281.365 233.027C282.085 232.823 282.759 232.747 283.252 232.723C283.498 232.71 283.701 232.71 283.843 232.714C283.914 232.716 283.97 232.718 284.009 232.72C284.028 232.721 284.044 232.722 284.054 232.723L284.067 232.724L284.07 232.724L284.072 232.724Z" fill="#BF0019"/>
</g>
<path fill-rule="evenodd" clip-rule="evenodd" d="M290.818 255.029C290.865 255.189 290.773 255.358 290.613 255.405C288.772 255.945 286.859 256.198 284.941 256.155C284.774 256.152 284.641 256.013 284.645 255.845C284.648 255.678 284.787 255.545 284.955 255.549C286.81 255.59 288.661 255.346 290.442 254.823C290.603 254.776 290.771 254.868 290.818 255.029Z" fill="#FE7D6B"/>
<path d="M166.73 50.5483H17.6798C7.91768 50.5483 0.00390625 58.4621 0.00390625 68.2243V175.218C0.00390625 184.98 7.91768 192.894 17.6798 192.894H166.73C176.492 192.894 184.406 184.98 184.406 175.218V68.2243C184.406 58.4621 176.492 50.5483 166.73 50.5483Z" fill="#A9D2CE"/>
<path d="M79.7688 122.227C79.7688 122.227 48.5296 135.269 46.7098 137.695C44.8901 140.121 30.332 192.894 30.332 192.894H159.535L152.851 145.158C152.315 141.326 150.662 137.737 148.099 134.839C145.536 131.941 142.176 129.863 138.438 128.862L107.975 120.71L79.7688 122.227Z" fill="#FE7D6B"/>
<mask id="mask14_94_57801" style="mask-type:luminance" maskUnits="userSpaceOnUse" x="30" y="120" width="130" height="73">
<path d="M79.7688 122.227C79.7688 122.227 48.5296 135.269 46.7098 137.695C44.8901 140.121 30.332 192.894 30.332 192.894H159.535L152.851 145.158C152.315 141.326 150.662 137.737 148.099 134.839C145.536 131.941 142.176 129.863 138.438 128.862L107.975 120.71L79.7688 122.227Z" fill="white"/>
</mask>
<g mask="url(#mask14_94_57801)">
<path fill-rule="evenodd" clip-rule="evenodd" d="M33.971 133.145C33.971 131.135 35.6005 129.506 37.6105 129.506H165.6C167.61 129.506 169.24 131.135 169.24 133.145C169.24 135.155 167.61 136.785 165.6 136.785H37.6105C35.6005 136.785 33.971 135.155 33.971 133.145ZM32.1512 151.343C32.1512 149.333 33.7807 147.703 35.7907 147.703H163.78C165.79 147.703 167.42 149.333 167.42 151.343C167.42 153.353 165.79 154.982 163.78 154.982H35.7907C33.7807 154.982 32.1512 153.353 32.1512 151.343ZM30.3315 169.541C30.3315 167.53 31.9609 165.901 33.971 165.901H161.961C163.971 165.901 165.6 167.53 165.6 169.541C165.6 171.551 163.971 173.18 161.961 173.18H33.971C31.9609 173.18 30.3315 171.551 30.3315 169.541ZM28.5117 187.738C28.5117 185.728 30.1412 184.099 32.1512 184.099H160.141C162.151 184.099 163.78 185.728 163.78 187.738C163.78 189.748 162.151 191.378 160.141 191.378H32.1512C30.1412 191.378 28.5117 189.748 28.5117 187.738Z" fill="#FDFDFF"/>
</g>
<path d="M112.02 82.8999C112.02 82.8999 115.255 70.3636 104.943 69.1504C104.943 69.1504 103.123 63.6912 93.8725 67.3307C84.6221 70.9702 70.3673 72.1834 79.7694 93.1106L84.5462 105.21L112.02 82.8999Z" fill="#6E000E"/>
<mask id="mask15_94_57801" style="mask-type:luminance" maskUnits="userSpaceOnUse" x="76" y="66" width="37" height="40">
<path d="M112.02 82.8999C112.02 82.8999 115.255 70.3636 104.943 69.1504C104.943 69.1504 103.123 63.6912 93.8725 67.3307C84.6221 70.9702 70.3673 72.1834 79.7694 93.1106L84.5462 105.21L112.02 82.8999Z" fill="white"/>
</mask>
<g mask="url(#mask15_94_57801)">
<path opacity="0.63" d="M102.452 67.7351C102.452 67.7351 99.5877 65.9153 94.4821 67.7351C89.3765 69.5548 77.8362 73.1943 77.1289 78.6536M105.552 71.7785C105.552 71.7785 111.36 72.3669 112.5 78.4419" stroke="#BF0019" stroke-linecap="round" stroke-linejoin="round"/>
<path opacity="0.63" fill-rule="evenodd" clip-rule="evenodd" d="M94.9472 71.0041C91.4423 71.5238 87.4918 73.4952 84.9616 75.355C83.5444 76.3967 82.5192 78.0083 81.7835 79.8704C81.0487 81.7305 80.6119 83.8178 80.3574 85.7814C80.1032 87.7436 80.0323 89.5725 80.0252 90.9116C80.0216 91.5808 80.0339 92.1268 80.0471 92.505C80.0537 92.694 80.0605 92.8411 80.0657 92.9405C80.0682 92.9902 80.0704 93.028 80.0719 93.0532L80.0736 93.0815L80.0741 93.0884L80.0742 93.09L79.7716 93.1105C79.4689 93.1307 79.4689 93.1305 79.4689 93.1304L79.4687 93.1276L79.4682 93.1197L79.4664 93.0892C79.4648 93.0625 79.4625 93.0231 79.4599 92.9718C79.4546 92.8692 79.4476 92.7188 79.4409 92.5261C79.4275 92.1409 79.415 91.5867 79.4186 90.9083C79.4259 89.5524 79.4975 87.6973 79.7559 85.7035C80.014 83.7111 80.4597 81.5704 81.2194 79.6475C81.9782 77.7267 83.0593 76.0004 84.6023 74.8663C87.1868 72.9665 91.2284 70.9423 94.8582 70.4041C96.6737 70.1349 98.4209 70.2323 99.8344 70.9395C101.263 71.6544 102.31 72.9719 102.748 75.0481C102.783 75.212 102.678 75.3729 102.514 75.4074C102.35 75.442 102.189 75.3371 102.154 75.1732C101.75 73.2538 100.806 72.1036 99.563 71.4819C98.3048 70.8525 96.699 70.7444 94.9472 71.0041ZM79.7917 93.4131C79.6246 93.4242 79.4801 93.2975 79.4689 93.1304L79.7716 93.1105L80.0742 93.09C80.0853 93.2571 79.9589 93.402 79.7917 93.4131Z" fill="#BF0019"/>
</g>
<path d="M105.859 106.761C105.859 106.761 106.138 109.058 106.504 111.798C106.99 115.432 107.63 119.845 107.976 120.71C107.976 120.71 94.3276 130.416 79.7695 122.227C79.7695 122.227 85.2531 117.108 84.5209 99.8843L105.859 106.761Z" fill="#FCC4AC"/>
<path opacity="0.49" d="M106.764 111.798C106.764 111.798 92.4715 116.147 84.7812 99.8843L106.764 101.603V111.798Z" fill="#FE7D6B"/>
<path d="M97.4609 74.8116C97.4609 74.8116 111.614 74.0031 112.019 82.8999C112.424 91.7967 114.041 109.185 99.4827 107.567C99.4827 107.567 88.1595 107.567 83.7114 98.2665C83.8534 97.518 79.7686 100.238 77.3423 94.4753C76.6969 92.9419 77.5407 91.4503 79.1924 91.6444C80.1267 91.8812 80.9858 92.3507 81.6897 93.0092C81.6897 93.0092 81.2851 73.1945 97.4609 74.8116Z" fill="#FCC4AC"/>
<path d="M103.122 83.1021H107.975M89.7773 83.1021H94.63" stroke="#610008" stroke-width="2" stroke-linecap="round" stroke-linejoin="round"/>
<path d="M101.484 88.0733C101.615 87.4655 105.572 83.1072 109.708 87.1307C110.087 87.5662 107.565 92.6476 101.484 88.0733Z" fill="#F8F9FD"/>
<mask id="mask16_94_57801" style="mask-type:luminance" maskUnits="userSpaceOnUse" x="101" y="85" width="9" height="5">
<path d="M101.484 88.0733C101.615 87.4655 105.572 83.1072 109.708 87.1307C110.087 87.5662 107.565 92.6476 101.484 88.0733Z" fill="white"/>
</mask>
<g mask="url(#mask16_94_57801)">
<path d="M106.699 90.5684C108.328 90.5684 109.648 89.3813 109.648 87.917C109.648 86.4527 108.328 85.2656 106.699 85.2656C105.07 85.2656 103.75 86.4527 103.75 87.917C103.75 89.3813 105.07 90.5684 106.699 90.5684Z" fill="#79020E"/>
</g>
<path d="M88.3516 88.0733C88.4826 87.4655 92.44 83.1072 96.5757 87.1307C96.9542 87.5662 94.4314 92.6476 88.3516 88.0733Z" fill="#F8F9FD"/>
<mask id="mask17_94_57801" style="mask-type:luminance" maskUnits="userSpaceOnUse" x="88" y="85" width="9" height="5">
<path d="M88.3516 88.0733C88.4826 87.4655 92.44 83.1072 96.5757 87.1307C96.9542 87.5662 94.4314 92.6476 88.3516 88.0733Z" fill="white"/>
</mask>
<g mask="url(#mask17_94_57801)">
<path d="M94.1719 90.5684C95.8007 90.5684 97.1211 89.3813 97.1211 87.917C97.1211 86.4527 95.8007 85.2656 94.1719 85.2656C92.5431 85.2656 91.2227 86.4527 91.2227 87.917C91.2227 89.3813 92.5431 90.5684 94.1719 90.5684Z" fill="#79020E"/>
</g>
<path d="M103.784 97.0534H97.6089C96.6341 97.0534 95.8438 95.967 95.8438 94.627C95.8438 93.2871 96.6341 92.2007 97.6089 92.2007H103.784C104.759 92.2007 105.549 93.2871 105.549 94.627C105.549 95.967 104.759 97.0534 103.784 97.0534Z" fill="#610008"/>
<path d="M83.7109 98.2668C83.7109 98.2668 85.7327 96.4471 89.7768 98.8734C93.8209 101.3 102.515 106.759 107.974 98.8734C113.434 90.9878 112.539 95.8405 112.279 98.8734C112.018 101.906 110.125 112.932 94.5925 106.812C94.5925 106.812 84.5195 103.928 83.7109 98.2668Z" fill="#610008"/>
<mask id="mask18_94_57801" style="mask-type:luminance" maskUnits="userSpaceOnUse" x="83" y="94" width="30" height="15">
<path d="M83.7109 98.2668C83.7109 98.2668 85.7327 96.4471 89.7768 98.8734C93.8209 101.3 102.515 106.759 107.974 98.8734C113.434 90.9878 112.539 95.8405 112.279 98.8734C112.018 101.906 110.125 112.932 94.5925 106.812C94.5925 106.812 84.5195 103.928 83.7109 98.2668Z" fill="white"/>
</mask>
<g mask="url(#mask18_94_57801)">
<path opacity="0.63" fill-rule="evenodd" clip-rule="evenodd" d="M87.4129 95.0623C88.7144 95.7956 90.3206 97.1955 92.309 99.5996C94.2564 101.954 96.23 103.243 98.0998 103.836C99.9695 104.428 101.758 104.332 103.347 103.88C104.938 103.427 106.327 102.618 107.385 101.79C108.451 100.957 109.153 100.127 109.397 99.6542C109.965 98.5491 111.053 97.3798 111.975 96.5012C112.44 96.0582 112.871 95.6824 113.185 95.4172C113.342 95.2845 113.471 95.1793 113.56 95.1071C113.605 95.071 113.64 95.0432 113.664 95.0242L113.691 95.0025L113.698 94.9968L113.701 94.9949C113.701 94.9948 113.701 94.9947 113.883 95.2279L113.701 94.9949C113.833 94.8918 114.024 94.9152 114.127 95.0472C114.23 95.1793 114.206 95.3699 114.074 95.4729C114.074 95.4729 114.074 95.4729 114.074 95.4729L114.072 95.4743L114.066 95.4792L114.041 95.4994C114.018 95.5172 113.985 95.544 113.941 95.5789C113.855 95.6487 113.73 95.7511 113.576 95.8808C113.269 96.1402 112.848 96.5078 112.393 96.9405C111.477 97.8131 110.454 98.9233 109.936 99.9316C109.636 100.515 108.857 101.409 107.759 102.268C106.652 103.133 105.195 103.985 103.513 104.463C101.828 104.943 99.9169 105.048 97.9165 104.414C95.9162 103.78 93.8492 102.413 91.8416 99.9862C89.8751 97.6085 88.3243 96.2721 87.1151 95.5907C85.9111 94.9123 85.0731 94.8969 84.4959 95.1094C83.9078 95.3259 83.5167 95.8055 83.2675 96.2617C83.1443 96.4871 83.0603 96.6988 83.0073 96.8539C82.9809 96.9312 82.9624 96.9937 82.9507 97.036C82.9449 97.0571 82.9408 97.0731 82.9382 97.0833L82.9356 97.0941L82.9352 97.0957C82.8984 97.2589 82.7362 97.3619 82.5729 97.3252C82.4094 97.2885 82.3067 97.1263 82.3434 96.9629L82.6393 97.0293C82.3434 96.9629 82.3433 96.9631 82.3434 96.9629L82.3436 96.9617L82.344 96.96L82.3453 96.9546L82.3496 96.9368C82.3533 96.9219 82.3587 96.9009 82.366 96.8745C82.3806 96.8219 82.4026 96.7476 82.4333 96.6577C82.4947 96.4782 82.5917 96.2334 82.7352 95.9708C83.0193 95.4508 83.5041 94.8282 84.2863 94.5402C85.0794 94.2482 86.106 94.3259 87.4129 95.0623Z" fill="#BF0019"/>
<path opacity="0.63" fill-rule="evenodd" clip-rule="evenodd" d="M86.6202 101.456C86.0327 101.373 85.4355 101.518 84.9512 101.86C84.8145 101.957 84.6252 101.925 84.5284 101.788C84.4316 101.651 84.464 101.462 84.6007 101.365C85.2115 100.933 85.9645 100.751 86.7053 100.856C87.4453 100.961 88.1171 101.344 88.5835 101.928C88.7524 102.132 89.1108 102.434 89.6507 102.797C90.1854 103.158 90.8785 103.565 91.6961 103.982C93.3316 104.815 95.4539 105.677 97.7855 106.264C102.461 107.442 107.903 107.496 111.983 104.1C112.112 103.993 112.303 104.01 112.41 104.139C112.518 104.268 112.5 104.459 112.371 104.566C108.07 108.146 102.387 108.048 97.6374 106.852C95.2565 106.253 93.0916 105.373 91.4208 104.522C90.5853 104.097 89.8704 103.677 89.3118 103.301C88.7601 102.929 88.3405 102.586 88.1143 102.313L88.111 102.308L88.111 102.308C87.7411 101.844 87.2077 101.54 86.6202 101.456Z" fill="#BF0019"/>
</g>
<path fill-rule="evenodd" clip-rule="evenodd" d="M99.9211 85.191C100.061 85.0986 100.249 85.1369 100.341 85.2766L100.088 85.444C100.341 85.2766 100.341 85.2765 100.341 85.2766L100.342 85.2781L100.345 85.2818L100.354 85.2955C100.362 85.3074 100.373 85.3248 100.387 85.3473C100.416 85.3923 100.457 85.4577 100.508 85.5406C100.61 85.7063 100.752 85.9423 100.908 86.2248C101.22 86.7875 101.6 87.5442 101.854 88.301C102.103 89.0406 102.259 89.852 102.038 90.4846C101.923 90.8158 101.705 91.0945 101.363 91.2761C101.028 91.4535 100.599 91.5262 100.072 91.4985C99.9052 91.4896 99.7768 91.3469 99.7856 91.1796C99.7944 91.0123 99.9372 90.8839 100.104 90.8927C100.564 90.917 100.873 90.849 101.078 90.7403C101.275 90.6358 101.396 90.483 101.465 90.2847C101.614 89.8584 101.523 89.2189 101.28 88.4946C101.042 87.7875 100.682 87.0672 100.378 86.519C100.226 86.246 100.09 86.018 99.9919 85.8587C99.9429 85.779 99.9034 85.7166 99.8764 85.6744C99.8628 85.6533 99.8524 85.6372 99.8455 85.6266L99.8378 85.6147L99.8359 85.6119L99.8355 85.6113" fill="#FE7D6B"/>
<path opacity="0.49" d="M94.5917 94.1245C94.6311 94.7497 94.4817 95.3723 94.1629 95.9116C93.844 96.4508 93.3705 96.8818 92.8036 97.1486C92.2368 97.4154 91.6029 97.5056 90.9841 97.4077C90.3654 97.3097 89.7904 97.0281 89.3337 96.5993C88.877 96.1705 88.5597 95.6143 88.423 95.0029C88.2863 94.3916 88.3365 93.7532 88.5671 93.1707C88.7976 92.5882 89.198 92.0885 89.7161 91.7363C90.2342 91.3842 90.8462 91.1959 91.4727 91.1959C92.2744 91.1715 93.053 91.4662 93.6378 92.0152C94.2225 92.5642 94.5656 93.3228 94.5917 94.1245ZM112.183 93.5179C112.222 94.1431 112.073 94.7657 111.754 95.305C111.435 95.8443 110.961 96.2752 110.395 96.542C109.828 96.8088 109.194 96.8991 108.575 96.8011C107.956 96.7032 107.381 96.4215 106.925 95.9927C106.468 95.5639 106.151 95.0077 106.014 94.3963C105.877 93.785 105.927 93.1466 106.158 92.5641C106.389 91.9817 106.789 91.4819 107.307 91.1298C107.825 90.7776 108.437 90.5893 109.064 90.5893C109.865 90.5649 110.644 90.8596 111.229 91.4086C111.814 91.9577 112.157 92.7162 112.183 93.5179Z" fill="#FE7D6B"/>
<path opacity="0.67" d="M84.7799 101.613C84.7799 101.613 91.7702 116.663 86.6798 124.904L79.7695 122.227C79.7695 122.227 85.5442 107.082 84.7799 101.613Z" fill="#FCD5C5"/>
</svg>
