<svg width="20" height="20" viewBox="0 0 20 20" fill="none" xmlns="http://www.w3.org/2000/svg">
<g clip-path="url(#clip0_3_8026)">
<path d="M10.0603 15.6333C10.3337 15.6333 10.571 15.5328 10.772 15.3317C10.9731 15.1307 11.0736 14.8854 11.0736 14.5959C11.0736 14.3225 10.9731 14.0852 10.772 13.8842C10.571 13.6832 10.3337 13.5826 10.0603 13.5826C9.77081 13.5826 9.52553 13.6832 9.32449 13.8842C9.12344 14.0852 9.02292 14.3225 9.02292 14.5959C9.02292 14.8854 9.12344 15.1307 9.32449 15.3317C9.52553 15.5328 9.77081 15.6333 10.0603 15.6333ZM10.0362 5.88661C10.5187 5.88661 10.9087 6.02332 11.2063 6.29674C11.5038 6.57016 11.6526 6.90792 11.6526 7.31001C11.6526 7.6156 11.5682 7.91315 11.3993 8.20265C11.2304 8.49216 10.9449 8.79775 10.5428 9.11942C10.1246 9.48934 9.78689 9.88741 9.52955 10.3136C9.27222 10.7398 9.14355 11.1218 9.14355 11.4596C9.14355 11.6526 9.22396 11.8094 9.3848 11.93C9.54564 12.0507 9.72256 12.111 9.91556 12.111C10.1246 12.111 10.3096 12.0426 10.4704 11.9059C10.6313 11.7692 10.7439 11.5883 10.8082 11.3631C10.8565 11.0575 10.961 10.7881 11.1218 10.5549C11.2827 10.3217 11.5159 10.0764 11.8215 9.81906C12.2718 9.44914 12.6055 9.05911 12.8227 8.64897C13.0398 8.23884 13.1484 7.77644 13.1484 7.26176C13.1484 6.39324 12.879 5.69361 12.3402 5.16285C11.8014 4.63209 11.0736 4.36671 10.1568 4.36671C9.51347 4.36671 8.93044 4.49538 8.40772 4.75271C7.885 5.01005 7.43868 5.37998 7.06876 5.86248C6.92401 6.0394 6.87173 6.24045 6.91194 6.46562C6.95215 6.69079 7.04463 6.85163 7.18938 6.94813C7.38239 7.09288 7.5955 7.14113 7.82871 7.09288C8.06192 7.04463 8.25895 6.91596 8.41978 6.70688C8.61279 6.44954 8.85002 6.24849 9.13148 6.10374C9.41295 5.95899 9.71452 5.88661 10.0362 5.88661ZM9.98794 20C8.58866 20 7.28187 19.7467 6.06755 19.24C4.85324 18.7334 3.79574 18.0298 2.89505 17.1291C1.99437 16.2284 1.28669 15.1709 0.772015 13.9566C0.257338 12.7423 0 11.4274 0 10.0121C0 8.61279 0.257338 7.30599 0.772015 6.09168C1.28669 4.87736 1.99437 3.81986 2.89505 2.91918C3.79574 2.0185 4.85324 1.3068 6.06755 0.784077C7.28187 0.261359 8.58866 0 9.98794 0C11.3711 0 12.6699 0.261359 13.8842 0.784077C15.0985 1.3068 16.156 2.0185 17.0567 2.91918C17.9574 3.81986 18.6731 4.87736 19.2039 6.09168C19.7346 7.30599 20 8.61279 20 10.0121C20 11.4274 19.7346 12.7423 19.2039 13.9566C18.6731 15.1709 17.9574 16.2284 17.0567 17.1291C16.156 18.0298 15.0985 18.7334 13.8842 19.24C12.6699 19.7467 11.3711 20 9.98794 20ZM9.98794 18.0941C12.2236 18.0941 14.1295 17.306 15.7057 15.7298C17.2819 14.1536 18.07 12.2477 18.07 10.0121C18.07 7.79252 17.2819 5.89063 15.7057 4.30639C14.1295 2.72216 12.2236 1.93004 9.98794 1.93004C7.70406 1.93004 5.78609 2.72216 4.23402 4.30639C2.68195 5.89063 1.90591 7.79252 1.90591 10.0121C1.90591 12.2477 2.68195 14.1536 4.23402 15.7298C5.78609 17.306 7.70406 18.0941 9.98794 18.0941Z" fill="#686687"/>
</g>
<defs>
<clipPath id="clip0_3_8026">
<rect width="20" height="20" fill="white"/>
</clipPath>
</defs>
</svg>
