<svg width="40" height="41" viewBox="0 0 40 41" fill="none" xmlns="http://www.w3.org/2000/svg">
<path d="M15.5882 35.5H8.52941C7.59335 35.5 6.69563 35.128 6.03374 34.4659C5.37185 33.8039 5 32.9059 5 31.9695V24.9086C5 23.9722 5.37185 23.0742 6.03374 22.4121C6.69563 21.7501 7.59335 21.3781 8.52941 21.3781H15.5882C16.5243 21.3781 17.422 21.7501 18.0839 22.4121C18.7458 23.0742 19.1176 23.9722 19.1176 24.9086V31.9695C19.1176 32.9059 18.7458 33.8039 18.0839 34.4659C17.422 35.128 16.5243 35.5 15.5882 35.5ZM8.52941 23.1433C8.06138 23.1433 7.61252 23.3293 7.28158 23.6604C6.95063 23.9914 6.76471 24.4404 6.76471 24.9086V31.9695C6.76471 32.4377 6.95063 32.8867 7.28158 33.2177C7.61252 33.5488 8.06138 33.7348 8.52941 33.7348H15.5882C16.0563 33.7348 16.5051 33.5488 16.8361 33.2177C17.167 32.8867 17.3529 32.4377 17.3529 31.9695V24.9086C17.3529 24.4404 17.167 23.9914 16.8361 23.6604C16.5051 23.3293 16.0563 23.1433 15.5882 23.1433H8.52941ZM27.9412 35.5C26.5451 35.5 25.1803 35.0859 24.0195 34.31C22.8587 33.5341 21.9539 32.4314 21.4197 31.1412C20.8854 29.8509 20.7456 28.4312 21.018 27.0615C21.2904 25.6918 21.9626 24.4337 22.9498 23.4462C23.937 22.4587 25.1948 21.7862 26.5641 21.5138C27.9333 21.2413 29.3526 21.3811 30.6425 21.9156C31.9323 22.45 33.0347 23.355 33.8104 24.5162C34.586 25.6774 35 27.0425 35 28.439C35 30.3117 34.2563 32.1077 32.9325 33.4319C31.6087 34.7561 29.8133 35.5 27.9412 35.5ZM27.9412 23.1433C26.8941 23.1433 25.8705 23.4539 24.9999 24.0358C24.1293 24.6177 23.4507 25.4448 23.05 26.4125C22.6493 27.3801 22.5445 28.4449 22.7488 29.4722C22.9531 30.4995 23.4573 31.4431 24.1977 32.1837C24.9381 32.9243 25.8814 33.4287 26.9083 33.633C27.9353 33.8373 28.9998 33.7325 29.9671 33.3316C30.9345 32.9308 31.7614 32.2521 32.3431 31.3812C32.9248 30.5103 33.2353 29.4864 33.2353 28.439C33.2353 27.0345 32.6775 25.6875 31.6847 24.6944C30.6918 23.7013 29.3453 23.1433 27.9412 23.1433ZM25.1 19.6129H14.9C14.293 19.6126 13.6975 19.4468 13.1777 19.1334C12.6578 18.8199 12.2332 18.3706 11.9496 17.8338C11.6659 17.2969 11.5339 16.6929 11.5678 16.0867C11.6016 15.4804 11.8001 14.8949 12.1418 14.393L17.2012 6.97904C17.5121 6.52323 17.9296 6.15024 18.4173 5.89249C18.9051 5.63473 19.4484 5.5 20 5.5C20.5516 5.5 21.0949 5.63473 21.5827 5.89249C22.0704 6.15024 22.4879 6.52323 22.7988 6.97904L27.8582 14.4036C28.197 14.9054 28.3931 15.4899 28.4255 16.0945C28.4578 16.6991 28.3253 17.3012 28.042 17.8362C27.7586 18.3713 27.3352 18.8193 26.817 19.1322C26.2988 19.4452 25.7053 19.6113 25.1 19.6129ZM18.6588 7.96228L13.5994 15.3763C13.4361 15.6131 13.3407 15.8902 13.3236 16.1774C13.3065 16.4646 13.3682 16.751 13.5022 17.0056C13.6362 17.2602 13.8373 17.4732 14.0837 17.6216C14.3301 17.7701 14.6124 17.8482 14.9 17.8476H25.1C25.3859 17.8473 25.6663 17.7691 25.9111 17.6214C26.1559 17.4737 26.3559 17.2622 26.4896 17.0094C26.6233 16.7566 26.6856 16.4722 26.67 16.1867C26.6543 15.9011 26.5612 15.6252 26.4006 15.3886L21.3412 7.96228C21.1922 7.74384 20.9922 7.56509 20.7584 7.44156C20.5247 7.31803 20.2643 7.25346 20 7.25346C19.7357 7.25346 19.4753 7.31803 19.2416 7.44156C19.0078 7.56509 18.8078 7.74384 18.6588 7.96228Z" fill="#686687"/>
</svg>
