<svg width="40" height="41" viewBox="0 0 40 41" fill="none" xmlns="http://www.w3.org/2000/svg">
<path d="M31.7245 26.4925C31.0308 25.2975 29.9995 21.9163 29.9995 17.5C29.9995 14.8478 28.946 12.3043 27.0706 10.4289C25.1952 8.55357 22.6517 7.5 19.9995 7.5C17.3474 7.5 14.8038 8.55357 12.9285 10.4289C11.0531 12.3043 9.99953 14.8478 9.99953 17.5C9.99953 21.9175 8.96703 25.2975 8.27328 26.4925C8.09612 26.7963 8.0022 27.1415 8.00099 27.4931C7.99978 27.8448 8.09133 28.1906 8.2664 28.4956C8.44147 28.8006 8.69388 29.0541 8.99816 29.2304C9.30244 29.4068 9.64784 29.4997 9.99953 29.5H15.1008C15.3315 30.6289 15.9451 31.6436 16.8377 32.3722C17.7303 33.1009 18.8472 33.4989 19.9995 33.4989C21.1518 33.4989 22.2687 33.1009 23.1614 32.3722C24.054 31.6436 24.6676 30.6289 24.8983 29.5H29.9995C30.3511 29.4995 30.6964 29.4064 31.0005 29.23C31.3046 29.0535 31.5568 28.8 31.7317 28.4951C31.9066 28.1901 31.9981 27.8444 31.9968 27.4928C31.9956 27.1412 31.9016 26.7962 31.7245 26.4925ZM19.9995 31.5C19.3793 31.4998 18.7744 31.3074 18.268 30.9492C17.7617 30.5911 17.3788 30.0848 17.172 29.5H22.827C22.6203 30.0848 22.2374 30.5911 21.731 30.9492C21.2247 31.3074 20.6198 31.4998 19.9995 31.5ZM9.99953 27.5C10.962 25.845 11.9995 22.01 11.9995 17.5C11.9995 15.3783 12.8424 13.3434 14.3427 11.8431C15.843 10.3429 17.8778 9.5 19.9995 9.5C22.1213 9.5 24.1561 10.3429 25.6564 11.8431C27.1567 13.3434 27.9995 15.3783 27.9995 17.5C27.9995 22.0063 29.0345 25.8412 29.9995 27.5H9.99953Z" fill="#686687"/>
</svg>
