<svg width="20" height="20" viewBox="0 0 20 20" fill="none" xmlns="http://www.w3.org/2000/svg">
<path d="M11.4732 20H8.14391C7.90266 20 7.68553 19.9276 7.49253 19.7829C7.29952 19.6381 7.18694 19.4451 7.15477 19.2039L6.79289 16.8637C6.53555 16.7672 6.25811 16.6345 5.96056 16.4656C5.66301 16.2967 5.4097 16.1238 5.20061 15.9469L3.05344 16.9602C2.82827 17.0728 2.59908 17.0889 2.36587 17.0084C2.13265 16.928 1.95171 16.7752 1.82305 16.5501L0.134263 13.5344C0.00559435 13.3253 -0.0305939 13.1041 0.0256988 12.8709C0.0819916 12.6377 0.20664 12.4407 0.399643 12.2799L2.40206 10.8323C2.36989 10.7197 2.34978 10.583 2.34174 10.4222C2.3337 10.2614 2.32968 10.1246 2.32968 10.0121C2.32968 9.89948 2.3337 9.76277 2.34174 9.60193C2.34978 9.44109 2.36989 9.30438 2.40206 9.1918L0.399643 7.72014C0.20664 7.57539 0.0819916 7.38239 0.0256988 7.14113C-0.0305939 6.89988 0.00559435 6.68275 0.134263 6.48975L1.82305 3.47407C1.95171 3.26498 2.13265 3.12023 2.36587 3.03981C2.59908 2.95939 2.82827 2.96743 3.05344 3.06393L5.22473 4.0772C5.43382 3.90028 5.68312 3.7314 5.97262 3.57057C6.26213 3.40973 6.53555 3.2891 6.79289 3.20868L7.15477 0.820265C7.18694 0.579011 7.29952 0.381986 7.49253 0.229192C7.68553 0.0763972 7.90266 0 8.14391 0H11.4732C11.7145 0 11.9316 0.0763972 12.1246 0.229192C12.3176 0.381986 12.4302 0.579011 12.4624 0.820265L12.8243 3.18456C13.0816 3.28106 13.359 3.40571 13.6566 3.5585C13.9541 3.7113 14.2074 3.8842 14.4165 4.0772L16.5637 3.06393C16.7889 2.96743 17.0181 2.95537 17.2513 3.02774C17.4845 3.10012 17.6654 3.24889 17.7941 3.47407L19.507 6.46562C19.6357 6.67471 19.6719 6.89988 19.6156 7.14113C19.5593 7.38239 19.4266 7.57539 19.2175 7.72014L17.2151 9.14355C17.2312 9.27222 17.2473 9.41697 17.2633 9.5778C17.2794 9.73864 17.2875 9.88339 17.2875 10.0121C17.2875 10.1407 17.2794 10.2815 17.2633 10.4343C17.2473 10.5871 17.2312 10.7278 17.2151 10.8565L19.2175 12.2799C19.4105 12.4407 19.5351 12.6377 19.5914 12.8709C19.6477 13.1041 19.6196 13.3253 19.507 13.5344L17.7941 16.5501C17.6654 16.7752 17.4845 16.928 17.2513 17.0084C17.0181 17.0889 16.7889 17.0728 16.5637 16.9602L14.3924 15.9469C14.1833 16.1238 13.938 16.3008 13.6566 16.4777C13.3751 16.6546 13.0977 16.7833 12.8243 16.8637L12.4624 19.2039C12.4302 19.4451 12.3176 19.6381 12.1246 19.7829C11.9316 19.9276 11.7145 20 11.4732 20ZM9.78444 13.1484C10.653 13.1484 11.3928 12.8428 12.004 12.2316C12.6152 11.6204 12.9208 10.8806 12.9208 10.0121C12.9208 9.14355 12.6152 8.4037 12.004 7.79252C11.3928 7.18134 10.653 6.87575 9.78444 6.87575C8.91593 6.87575 8.17608 7.18134 7.5649 7.79252C6.95372 8.4037 6.64814 9.14355 6.64814 10.0121C6.64814 10.8806 6.95372 11.6204 7.5649 12.2316C8.17608 12.8428 8.91593 13.1484 9.78444 13.1484ZM9.78444 11.7008C9.30194 11.7008 8.89984 11.536 8.57817 11.2063C8.2565 10.8766 8.09566 10.4785 8.09566 10.0121C8.09566 9.54564 8.2565 9.14757 8.57817 8.81785C8.89984 8.48814 9.30194 8.32328 9.78444 8.32328C10.2509 8.32328 10.6489 8.48814 10.9787 8.81785C11.3084 9.14757 11.4732 9.54564 11.4732 10.0121C11.4732 10.4785 11.3084 10.8766 10.9787 11.2063C10.6489 11.536 10.2509 11.7008 9.78444 11.7008ZM8.86768 18.0941H10.7495L11.0872 15.392C11.6341 15.2634 12.1528 15.0623 12.6433 14.7889C13.1339 14.5155 13.5721 14.1777 13.9581 13.7756L16.5154 14.8854L17.3598 13.3173L15.1162 11.6767C15.1805 11.4033 15.2328 11.1299 15.273 10.8565C15.3132 10.583 15.3333 10.3016 15.3333 10.0121C15.3333 9.72256 15.3172 9.44109 15.285 9.16767C15.2529 8.89425 15.1966 8.62083 15.1162 8.34741L17.3598 6.70688L16.5154 5.13872L13.9581 6.24849C13.5882 5.81423 13.162 5.44833 12.6795 5.15078C12.197 4.85324 11.6662 4.6723 11.0872 4.60796L10.7495 1.93004H8.86768L8.52992 4.60796C7.96699 4.70446 7.44026 4.89747 6.9497 5.18697C6.45915 5.47648 6.02087 5.83032 5.63487 6.24849L3.10169 5.13872L2.2573 6.70688L4.47684 8.32328C4.41251 8.61279 4.36024 8.89425 4.32003 9.16767C4.27982 9.44109 4.25972 9.72256 4.25972 10.0121C4.25972 10.3016 4.27982 10.5871 4.32003 10.8685C4.36024 11.15 4.41251 11.4274 4.47684 11.7008L2.2573 13.3173L3.10169 14.8854L5.63487 13.7756C6.03696 14.1777 6.48328 14.5195 6.97383 14.801C7.46438 15.0824 7.98308 15.2875 8.52992 15.4162L8.86768 18.0941Z" fill="#686687"/>
</svg>
