<svg width="18" height="16" viewBox="0 0 18 16" fill="none" xmlns="http://www.w3.org/2000/svg">
<path d="M16.6154 0.5H1.38462C1.01739 0.5 0.66521 0.643668 0.405544 0.8994C0.145879 1.15513 0 1.50198 0 1.86364V14.1364C0 14.498 0.145879 14.8449 0.405544 15.1006C0.66521 15.3563 1.01739 15.5 1.38462 15.5H16.6154C16.9826 15.5 17.3348 15.3563 17.5945 15.1006C17.8541 14.8449 18 14.498 18 14.1364V1.86364C18 1.50198 17.8541 1.15513 17.5945 0.8994C17.3348 0.643668 16.9826 0.5 16.6154 0.5ZM16.6154 7.31818H12.4615V1.86364H16.6154V7.31818ZM1.38462 1.86364H11.0769V14.1364H1.38462V1.86364ZM16.6154 14.1364H12.4615V8.68182H16.6154V14.1364ZM13.5 4.59091C13.5 4.38863 13.5609 4.1909 13.675 4.02271C13.7891 3.85453 13.9513 3.72344 14.1411 3.64603C14.3308 3.56862 14.5396 3.54837 14.7411 3.58783C14.9425 3.6273 15.1275 3.7247 15.2728 3.86773C15.418 4.01076 15.5169 4.19299 15.557 4.39138C15.597 4.58977 15.5765 4.79541 15.4979 4.98229C15.4193 5.16917 15.2862 5.3289 15.1154 5.44128C14.9446 5.55365 14.7439 5.61364 14.5385 5.61364C14.263 5.61364 13.9989 5.50589 13.8042 5.31409C13.6094 5.12229 13.5 4.86215 13.5 4.59091ZM15.5769 11.4091C15.5769 11.6114 15.516 11.8091 15.4019 11.9773C15.2878 12.1455 15.1256 12.2766 14.9359 12.354C14.7461 12.4314 14.5373 12.4516 14.3359 12.4122C14.1344 12.3727 13.9494 12.2753 13.8042 12.1323C13.6589 11.9892 13.56 11.807 13.52 11.6086C13.4799 11.4102 13.5005 11.2046 13.579 11.0177C13.6576 10.8308 13.7907 10.6711 13.9615 10.5587C14.1323 10.4463 14.3331 10.3864 14.5385 10.3864C14.8139 10.3864 15.078 10.4941 15.2728 10.6859C15.4675 10.8777 15.5769 11.1378 15.5769 11.4091ZM9.67067 11.2386C9.44664 10.4148 8.91544 9.70452 8.18308 9.24943C8.57201 8.86867 8.83739 8.38274 8.94558 7.85326C9.05377 7.32378 8.99989 6.77459 8.79078 6.2753C8.58167 5.77601 8.22674 5.34911 7.77098 5.04871C7.31523 4.74832 6.77917 4.58796 6.23077 4.58796C5.68237 4.58796 5.14631 4.74832 4.69055 5.04871C4.2348 5.34911 3.87987 5.77601 3.67076 6.2753C3.46165 6.77459 3.40777 7.32378 3.51596 7.85326C3.62415 8.38274 3.88953 8.86867 4.27846 9.24943C3.54657 9.70502 3.01552 10.4151 2.79087 11.2386C2.74496 11.4138 2.7716 11.5998 2.86492 11.7556C2.95823 11.9114 3.11059 12.0244 3.28846 12.0696C3.46634 12.1148 3.65516 12.0886 3.81339 11.9967C3.97163 11.9048 4.08631 11.7547 4.13221 11.5795C4.36067 10.706 5.2624 10.0455 6.23077 10.0455C7.19913 10.0455 8.10173 10.7043 8.32933 11.5795C8.37523 11.7547 8.48991 11.9048 8.64815 11.9967C8.80638 12.0886 8.9952 12.1148 9.17308 12.0696C9.35095 12.0244 9.5033 11.9114 9.59662 11.7556C9.68994 11.5998 9.71658 11.4138 9.67067 11.2386ZM4.84615 7.31818C4.84615 7.04848 4.92736 6.78484 5.0795 6.56059C5.23165 6.33634 5.44789 6.16156 5.7009 6.05835C5.95391 5.95514 6.23231 5.92813 6.50089 5.98075C6.76948 6.03336 7.0162 6.16324 7.20984 6.35395C7.40348 6.54465 7.53535 6.78763 7.58878 7.05215C7.64221 7.31667 7.61479 7.59085 7.50999 7.84002C7.40519 8.08919 7.22772 8.30217 7.00002 8.452C6.77232 8.60184 6.50462 8.68182 6.23077 8.68182C5.86355 8.68182 5.51136 8.53815 5.2517 8.28242C4.99203 8.02669 4.84615 7.67984 4.84615 7.31818Z" fill="#686687"/>
</svg>
