<svg width="20" height="20" viewBox="0 0 20 20" fill="none" xmlns="http://www.w3.org/2000/svg">
<path d="M12.6254 20C12.4652 20 12.3183 19.9733 12.1848 19.9199C12.0513 19.8665 11.9311 19.7864 11.8243 19.6796L5.14876 12.6569C5.02415 12.5145 4.91289 12.3275 4.81498 12.0961C4.71708 11.8647 4.66812 11.6422 4.66812 11.4286C4.66812 11.0369 4.80608 10.7032 5.08201 10.4272C5.35793 10.1513 5.69171 10.0134 6.08334 10.0134H8.48655C9.37662 10.0134 10.1688 9.74633 10.863 9.21228C11.5573 8.67824 11.9667 7.90387 12.0914 6.88919H4.4011C4.09847 6.88919 3.8448 6.78683 3.64008 6.58211C3.43537 6.37739 3.33301 6.12372 3.33301 5.82109C3.33301 5.51847 3.43537 5.26925 3.64008 5.07343C3.8448 4.87761 4.09847 4.77971 4.4011 4.77971H12.0379C11.8421 3.99644 11.3926 3.36004 10.6895 2.87049C9.98632 2.38095 9.22531 2.13618 8.40644 2.13618H4.4011C4.09847 2.13618 3.8448 2.03382 3.64008 1.82911C3.43537 1.62439 3.33301 1.37072 3.33301 1.06809C3.33301 0.783267 3.43537 0.534045 3.64008 0.320427C3.8448 0.106809 4.09847 0 4.4011 0H15.6161C15.9187 0 16.1723 0.106809 16.3771 0.320427C16.5818 0.534045 16.6841 0.783267 16.6841 1.06809C16.6841 1.37072 16.5818 1.62439 16.3771 1.82911C16.1723 2.03382 15.9187 2.13618 15.6161 2.13618H12.7055C13.0615 2.42101 13.3775 2.82599 13.6534 3.35113C13.9294 3.87628 14.1296 4.35247 14.2542 4.77971H15.6161C15.9187 4.77971 16.1723 4.87761 16.3771 5.07343C16.5818 5.26925 16.6841 5.51847 16.6841 5.82109C16.6841 6.12372 16.5818 6.37739 16.3771 6.58211C16.1723 6.78683 15.9187 6.88919 15.6161 6.88919H14.2542C14.0762 8.49132 13.4665 9.75523 12.4251 10.6809C11.3837 11.6066 10.151 12.0872 8.72687 12.1228H7.57867L13.3998 18.2109C13.7202 18.567 13.7869 18.9542 13.6 19.3725C13.4131 19.7908 13.0882 20 12.6254 20Z" fill="#686687"/>
</svg>
