<svg width="20" height="20" viewBox="0 0 20 20" fill="none" xmlns="http://www.w3.org/2000/svg">
<g clip-path="url(#clip0_2_33791)">
<path d="M17.9721 19.794H2.00253C1.46177 19.794 0.992818 19.5954 0.595691 19.1983C0.198563 18.8011 0 18.3322 0 17.7914V2.86114C0 2.30347 0.198563 1.82607 0.595691 1.42894C0.992818 1.03182 1.46177 0.833252 2.00253 0.833252H17.9721C18.5298 0.833252 19.0072 1.03182 19.4043 1.42894C19.8014 1.82607 20 2.30347 20 2.86114V17.7914C20 18.3322 19.8014 18.8011 19.4043 19.1983C19.0072 19.5954 18.5298 19.794 17.9721 19.794ZM2.00253 6.33389H17.9721V2.86114H2.00253V6.33389ZM5.72877 7.8548H2.00253V17.7914H5.72877V7.8548ZM14.2459 7.8548V17.7914H17.9721V7.8548H14.2459ZM12.725 7.8548H7.24968V17.7914H12.725V7.8548Z" fill="#686687"/>
</g>
<defs>
<clipPath id="clip0_2_33791">
<rect width="20" height="20" fill="white"/>
</clipPath>
</defs>
</svg>
