<svg width="20" height="20" viewBox="0 0 20 20" fill="none" xmlns="http://www.w3.org/2000/svg">
<g clip-path="url(#clip0_2_33788)">
<path d="M12.7624 14.0893C12.9232 14.2662 13.1283 14.3506 13.3776 14.3426C13.6269 14.3345 13.84 14.2421 14.0169 14.0651C14.226 13.8721 14.3305 13.647 14.3305 13.3896C14.3305 13.1323 14.234 12.9232 14.041 12.7624L10.9288 9.62606V5.76598C10.9288 5.54081 10.8484 5.34379 10.6876 5.17491C10.5267 5.00603 10.3177 4.92159 10.0603 4.92159C9.81906 4.92159 9.61399 5.00603 9.44511 5.17491C9.27624 5.34379 9.1918 5.54885 9.1918 5.79011V9.98794C9.1918 10.1005 9.2119 10.2131 9.25211 10.3257C9.29232 10.4383 9.36068 10.5509 9.45718 10.6635L12.7624 14.0893ZM9.98794 20C8.62083 20 7.33012 19.7386 6.1158 19.2159C4.90149 18.6932 3.83997 17.9775 2.93124 17.0688C2.02252 16.16 1.3068 15.1025 0.784077 13.8963C0.261359 12.69 0 11.3953 0 10.0121C0 8.64495 0.261359 7.35424 0.784077 6.13993C1.3068 4.92561 2.02252 3.86409 2.93124 2.95537C3.83997 2.04664 4.90149 1.3269 6.1158 0.79614C7.33012 0.26538 8.62083 0 9.98794 0C11.355 0 12.6458 0.26538 13.8601 0.79614C15.0744 1.3269 16.1359 2.04664 17.0446 2.95537C17.9534 3.86409 18.6731 4.92561 19.2039 6.13993C19.7346 7.35424 20 8.64495 20 10.0121C20 11.3792 19.7346 12.6699 19.2039 13.8842C18.6731 15.0985 17.9534 16.16 17.0446 17.0688C16.1359 17.9775 15.0784 18.6932 13.8721 19.2159C12.6659 19.7386 11.3711 20 9.98794 20ZM9.98794 18.0941C12.2075 18.0941 14.1094 17.306 15.6936 15.7298C17.2778 14.1536 18.07 12.2477 18.07 10.0121C18.07 7.79252 17.2778 5.89063 15.6936 4.30639C14.1094 2.72216 12.2075 1.93004 9.98794 1.93004C7.7684 1.93004 5.86651 2.72216 4.28227 4.30639C2.69803 5.89063 1.90591 7.79252 1.90591 10.0121C1.90591 12.2477 2.69803 14.1536 4.28227 15.7298C5.86651 17.306 7.7684 18.0941 9.98794 18.0941Z" fill="#686687"/>
</g>
<defs>
<clipPath id="clip0_2_33788">
<rect width="20" height="20" fill="white"/>
</clipPath>
</defs>
</svg>
