<svg width="20" height="20" viewBox="0 0 20 20" fill="none" xmlns="http://www.w3.org/2000/svg">
<path d="M0.879121 17.0714C0.630037 17.0714 0.421245 16.9908 0.252747 16.8297C0.0842491 16.6685 0 16.4634 0 16.2143V14.6758C0 14.1044 0.14652 13.5879 0.43956 13.1264C0.732601 12.6648 1.14286 12.3169 1.67033 12.0824C2.75458 11.6136 3.73626 11.2729 4.61538 11.0604C5.49451 10.848 6.40293 10.7418 7.34066 10.7418C8.29304 10.7418 9.20513 10.8443 10.0769 11.0495C10.9487 11.2546 11.9267 11.5989 13.011 12.0824C13.5238 12.3022 13.9341 12.6429 14.2418 13.1044C14.5495 13.5659 14.7033 14.0897 14.7033 14.6758V16.2143C14.7033 16.4634 14.619 16.6685 14.4505 16.8297C14.2821 16.9908 14.0733 17.0714 13.8242 17.0714H0.879121ZM15.5824 17.0714C15.7436 17.0275 15.8791 16.9249 15.989 16.7637C16.0989 16.6026 16.1538 16.4048 16.1538 16.1703V14.7198C16.1538 13.7674 15.9231 12.9799 15.4615 12.3571C15 11.7344 14.3736 11.1886 13.5824 10.7198C14.5348 10.8516 15.4322 11.0275 16.2747 11.2473C17.1172 11.467 17.8022 11.7161 18.3297 11.9945C18.8425 12.2729 19.2491 12.6502 19.5494 13.1264C19.8498 13.6026 20 14.141 20 14.7418V16.2143C20 16.4634 19.9158 16.6685 19.7473 16.8297C19.5788 16.9908 19.37 17.0714 19.1209 17.0714H15.5824ZM7.34066 9.4011C6.32967 9.4011 5.50183 9.07875 4.85714 8.43407C4.21245 7.78938 3.89011 6.96154 3.89011 5.95055C3.89011 4.92491 4.21245 4.09341 4.85714 3.45604C5.50183 2.81868 6.32967 2.5 7.34066 2.5C8.3663 2.5 9.1978 2.81868 9.83517 3.45604C10.4725 4.09341 10.7912 4.91758 10.7912 5.92857C10.7912 6.95421 10.4725 7.78938 9.83517 8.43407C9.1978 9.07875 8.3663 9.4011 7.34066 9.4011ZM15.7143 5.92857C15.7143 6.95421 15.3919 7.78938 14.7473 8.43407C14.1026 9.07875 13.2747 9.4011 12.2637 9.4011C12.0879 9.4011 11.9048 9.38645 11.7143 9.35714C11.5238 9.32784 11.3407 9.28388 11.1648 9.22528C11.5311 8.82967 11.8059 8.35714 11.989 7.80769C12.1722 7.25824 12.2637 6.63919 12.2637 5.95055C12.2637 5.2619 12.1722 4.65018 11.989 4.11538C11.8059 3.58059 11.5311 3.10073 11.1648 2.67582C11.326 2.61722 11.5055 2.57326 11.7033 2.54396C11.9011 2.51465 12.0879 2.5 12.2637 2.5C13.2747 2.5 14.1026 2.82234 14.7473 3.46703C15.3919 4.11172 15.7143 4.93223 15.7143 5.92857ZM1.73626 15.3352H12.9451V14.7198C12.9451 14.5 12.8755 14.2802 12.7363 14.0604C12.5971 13.8407 12.4249 13.6941 12.2198 13.6209C11.1941 13.1667 10.337 12.8626 9.64835 12.7088C8.95971 12.5549 8.19048 12.478 7.34066 12.478C6.52015 12.478 5.75092 12.5549 5.03297 12.7088C4.31502 12.8626 3.45055 13.1667 2.43956 13.6209C2.24908 13.6941 2.08425 13.8407 1.94506 14.0604C1.80586 14.2802 1.73626 14.5 1.73626 14.7198V15.3352ZM7.34066 7.7967C7.88278 7.7967 8.32601 7.62088 8.67033 7.26923C9.01465 6.91758 9.18681 6.47802 9.18681 5.95055C9.18681 5.40842 9.01465 4.9652 8.67033 4.62088C8.32601 4.27656 7.88278 4.1044 7.34066 4.1044C6.81319 4.1044 6.37363 4.27656 6.02198 4.62088C5.67033 4.9652 5.49451 5.4011 5.49451 5.92857C5.49451 6.4707 5.67033 6.91758 6.02198 7.26923C6.37363 7.62088 6.81319 7.7967 7.34066 7.7967Z" fill="white" fill-opacity="0.2"/>
</svg>
