<svg width="20" height="20" viewBox="0 0 20 20" fill="none" xmlns="http://www.w3.org/2000/svg">
<path d="M2.99148 17.8415H6.68V10.8743H13.2374V17.8415H16.9259V7.37705L9.95869 2.15847L2.99148 7.37705V17.8415ZM2.99148 20C2.39038 20 1.88037 19.7905 1.46142 19.3716C1.04248 18.9526 0.833008 18.4426 0.833008 17.8415V7.37705C0.833008 7.04918 0.910421 6.73042 1.06525 6.42076C1.22008 6.11111 1.4341 5.8561 1.70732 5.65574L8.64722 0.437159C8.84758 0.291439 9.0616 0.18215 9.28929 0.10929C9.51698 0.03643 9.74011 0 9.95869 0C10.1955 0 10.4232 0.03643 10.6418 0.10929C10.8603 0.18215 11.0698 0.291439 11.2702 0.437159L18.2101 5.65574C18.4833 5.8561 18.7019 6.11111 18.8658 6.42076C19.0297 6.73042 19.1117 7.04918 19.1117 7.37705V17.8415C19.1117 18.4426 18.8977 18.9526 18.4696 19.3716C18.0416 19.7905 17.527 20 16.9259 20H11.2428V12.8689H8.67454V20H2.99148Z" fill="white"/>
</svg>
