<svg width="20" height="20" viewBox="0 0 20 20" fill="none" xmlns="http://www.w3.org/2000/svg">
<path d="M17.6154 2.5H2.38462C2.01739 2.5 1.66521 2.64367 1.40554 2.8994C1.14588 3.15513 1 3.50198 1 3.86364V16.1364C1 16.498 1.14588 16.8449 1.40554 17.1006C1.66521 17.3563 2.01739 17.5 2.38462 17.5H17.6154C17.9826 17.5 18.3348 17.3563 18.5945 17.1006C18.8541 16.8449 19 16.498 19 16.1364V3.86364C19 3.50198 18.8541 3.15513 18.5945 2.8994C18.3348 2.64367 17.9826 2.5 17.6154 2.5ZM17.6154 9.31818H13.4615V3.86364H17.6154V9.31818ZM2.38462 3.86364H12.0769V16.1364H2.38462V3.86364ZM17.6154 16.1364H13.4615V10.6818H17.6154V16.1364ZM14.5 6.59091C14.5 6.38863 14.5609 6.1909 14.675 6.02271C14.7891 5.85453 14.9513 5.72344 15.1411 5.64603C15.3308 5.56862 15.5396 5.54837 15.7411 5.58783C15.9425 5.6273 16.1275 5.7247 16.2728 5.86773C16.418 6.01076 16.5169 6.193 16.557 6.39138C16.597 6.58977 16.5765 6.79541 16.4979 6.98229C16.4193 7.16917 16.2862 7.3289 16.1154 7.44128C15.9446 7.55365 15.7438 7.61364 15.5385 7.61364C15.263 7.61364 14.9989 7.50589 14.8042 7.31409C14.6094 7.12229 14.5 6.86215 14.5 6.59091ZM16.5769 13.4091C16.5769 13.6114 16.516 13.8091 16.4019 13.9773C16.2878 14.1455 16.1256 14.2766 15.9359 14.354C15.7461 14.4314 15.5373 14.4516 15.3359 14.4122C15.1344 14.3727 14.9494 14.2753 14.8042 14.1323C14.6589 13.9892 14.56 13.807 14.52 13.6086C14.4799 13.4102 14.5005 13.2046 14.579 13.0177C14.6576 12.8308 14.7907 12.6711 14.9615 12.5587C15.1323 12.4463 15.3331 12.3864 15.5385 12.3864C15.8139 12.3864 16.078 12.4941 16.2728 12.6859C16.4675 12.8777 16.5769 13.1378 16.5769 13.4091ZM10.6707 13.2386C10.4466 12.4148 9.91544 11.7045 9.18308 11.2494C9.57201 10.8687 9.83739 10.3827 9.94558 9.85326C10.0538 9.32378 9.99989 8.77459 9.79078 8.2753C9.58167 7.77601 9.22674 7.34911 8.77098 7.04871C8.31523 6.74832 7.77917 6.58796 7.23077 6.58796C6.68237 6.58796 6.14631 6.74832 5.69055 7.04871C5.2348 7.34911 4.87987 7.77601 4.67076 8.2753C4.46165 8.77459 4.40777 9.32378 4.51596 9.85326C4.62415 10.3827 4.88953 10.8687 5.27846 11.2494C4.54657 11.705 4.01552 12.4151 3.79087 13.2386C3.74496 13.4138 3.7716 13.5998 3.86492 13.7556C3.95823 13.9114 4.11059 14.0244 4.28846 14.0696C4.46634 14.1148 4.65516 14.0886 4.81339 13.9967C4.97163 13.9048 5.08631 13.7547 5.13221 13.5795C5.36067 12.706 6.2624 12.0455 7.23077 12.0455C8.19913 12.0455 9.10173 12.7043 9.32933 13.5795C9.37523 13.7547 9.48991 13.9048 9.64815 13.9967C9.80638 14.0886 9.9952 14.1148 10.1731 14.0696C10.351 14.0244 10.5033 13.9114 10.5966 13.7556C10.6899 13.5998 10.7166 13.4138 10.6707 13.2386ZM5.84615 9.31818C5.84615 9.04848 5.92736 8.78483 6.0795 8.56059C6.23165 8.33634 6.4479 8.16156 6.7009 8.05835C6.95391 7.95514 7.23231 7.92813 7.50089 7.98075C7.76948 8.03336 8.0162 8.16324 8.20984 8.35395C8.40348 8.54465 8.53535 8.78763 8.58878 9.05215C8.64221 9.31667 8.61479 9.59085 8.50999 9.84002C8.40519 10.0892 8.22772 10.3022 8.00002 10.452C7.77232 10.6018 7.50462 10.6818 7.23077 10.6818C6.86355 10.6818 6.51136 10.5381 6.2517 10.2824C5.99203 10.0267 5.84615 9.67984 5.84615 9.31818Z" fill="white"/>
</svg>
