<svg width="137" height="24" viewBox="0 0 137 24" fill="none" xmlns="http://www.w3.org/2000/svg">
<path d="M0.92 23V0.599998H9.016C14.36 0.599998 17.464 3.8 17.464 8.056C17.464 12.28 14.36 15.544 9.016 15.544H3.96V23H0.92ZM3.96 12.824H9.016C12.344 12.824 14.36 10.648 14.36 8.056C14.36 5.432 12.344 3.32 9.016 3.32H3.96V12.824ZM33.2803 23H30.4643V21.24C29.4403 22.52 28.0003 23.32 26.1443 23.32C22.9123 23.32 20.0963 20.92 20.0963 16.888V8.6H22.9123V16.12C22.9123 19.224 24.3843 20.76 26.6562 20.76C28.9283 20.76 30.4643 19.224 30.4643 16.12V8.6H33.2803V23ZM36.3485 8.6H39.1645V10.36C40.1885 9.08 41.6285 8.28 43.4845 8.28C46.7165 8.28 49.5325 10.68 49.5325 14.712V23H46.7165V15.48C46.7165 12.376 45.2445 10.84 42.9725 10.84C40.7005 10.84 39.1645 12.376 39.1645 15.48V23H36.3485V8.6ZM65.8808 18.424C64.9528 21.4 62.6488 23.32 59.1927 23.32C54.6808 23.32 51.9928 20.344 51.9928 15.8C51.9928 11.224 54.6808 8.28 59.0968 8.28C62.6168 8.28 65.0808 10.328 65.8808 13.496H62.8088C62.2648 11.96 60.9528 10.84 59.0968 10.84C56.4088 10.84 54.8728 12.92 54.8728 15.8C54.8728 18.648 56.4088 20.76 59.1927 20.76C61.0168 20.76 62.0728 19.768 62.8088 18.424H65.8808ZM69.2445 4.056H72.0605V8.6H75.5485V11.096H72.0605V18.808C72.0605 19.736 72.3165 20.504 73.7245 20.504H75.8685V23H72.9565C70.3325 23 69.2445 21.688 69.2445 19.192V11.096H67.4205V8.6H69.2445V4.056ZM91.2178 23H88.4018V21.24C87.3778 22.52 85.9378 23.32 84.0818 23.32C80.8498 23.32 78.0338 20.92 78.0338 16.888V8.6H80.8498V16.12C80.8498 19.224 82.3218 20.76 84.5938 20.76C86.8658 20.76 88.4018 19.224 88.4018 16.12V8.6H91.2178V23ZM105.326 8.6H108.142V23H105.326V21.144C104.27 22.52 102.734 23.32 100.75 23.32C96.91 23.32 93.774 20.344 93.774 15.8C93.774 11.224 96.91 8.28 100.75 8.28C102.734 8.28 104.27 9.048 105.326 10.456V8.6ZM96.654 15.8C96.654 18.648 98.35 20.76 101.102 20.76C103.886 20.76 105.55 18.648 105.55 15.8C105.55 12.92 103.886 10.84 101.102 10.84C98.35 10.84 96.654 12.92 96.654 15.8ZM111.224 0.599998H114.04V23H111.224V0.599998ZM117.131 8.6H119.947V23H117.131V8.6ZM116.618 3.832C116.618 2.776 117.419 1.912 118.539 1.912C119.691 1.912 120.491 2.776 120.491 3.832C120.491 4.92 119.691 5.784 118.539 5.784C117.419 5.784 116.618 4.92 116.618 3.832ZM123.932 4.056H126.748V8.6H130.236V11.096H126.748V18.808C126.748 19.736 127.004 20.504 128.412 20.504H130.556V23H127.644C125.02 23 123.932 21.688 123.932 19.192V11.096H122.108V8.6H123.932V4.056ZM132.849 8.6H135.665V23H132.849V8.6ZM132.337 3.832C132.337 2.776 133.137 1.912 134.257 1.912C135.409 1.912 136.209 2.776 136.209 3.832C136.209 4.92 135.409 5.784 134.257 5.784C133.137 5.784 132.337 4.92 132.337 3.832Z" fill="#233244"/>
</svg>
